<svg width="24" height="24" viewBox="0 0 24 24" fill="none" xmlns="http://www.w3.org/2000/svg">
<circle cx="12" cy="12.0001" r="9.00375" stroke="#040325" stroke-width="1.5" stroke-linecap="round" stroke-linejoin="round"/>
<path fill-rule="evenodd" clip-rule="evenodd" d="M13.5807 15.0435L9.85213 15.9579C9.34434 16.0799 8.80963 15.9292 8.44035 15.5599C8.07106 15.1906 7.92033 14.6559 8.04237 14.1481L8.95675 10.4195C9.13493 9.69827 9.69809 9.13511 10.4194 8.95694L14.1479 8.04256C14.6557 7.92051 15.1904 8.07125 15.5597 8.44053C15.929 8.80981 16.0797 9.34453 15.9577 9.85231L15.0433 13.5809C14.8651 14.3021 14.302 14.8653 13.5807 15.0435Z" stroke="#040325" stroke-width="1.5" stroke-linecap="round" stroke-linejoin="round"/>
<path d="M12 11.7501C11.862 11.7507 11.7505 11.8629 11.7509 12.0009C11.7513 12.1389 11.8633 12.2505 12.0013 12.2503C12.1393 12.2501 12.2511 12.1382 12.2511 12.0002C12.2514 11.9336 12.225 11.8697 12.1778 11.8227C12.1306 11.7757 12.0666 11.7496 12 11.7501" stroke="#040325" stroke-width="1.5" stroke-linecap="round" stroke-linejoin="round"/>
</svg>
