<svg width="141" height="61" viewBox="0 0 141 61" fill="none" xmlns="http://www.w3.org/2000/svg">
<g clip-path="url(#clip0_10460_3216)">
<path d="M47.1446 24.754L47.2309 24.2974H40.9209L36.3789 31.8903H35.6228L33.5186 24.2974H27.2115L27.1281 24.754L31.2073 33.6744L23.7216 43.508L23.6353 43.9647H30.2385L34.7806 36.2072H35.5395L37.6409 43.9647H43.9508L44.0342 43.508L39.955 34.5451L47.1446 24.754Z" fill="white"/>
<path d="M57.7005 23.7388C51.77 23.7388 47.4378 27.0999 46.3455 33.1583C45.1266 40.0876 48.4066 44.5265 55.2197 44.5265C61.1933 44.5265 65.4823 41.0009 66.5316 35.0672C67.7505 28.0557 64.3439 23.7388 57.7005 23.7388ZM60.9374 34.3609C60.3481 37.8043 58.7095 39.7132 55.6394 39.7132C52.3593 39.7132 51.3072 37.4724 51.9799 33.7795C52.5692 30.3361 54.2078 28.467 57.2377 28.467C60.4775 28.467 61.613 30.6652 60.9403 34.3581L60.9374 34.3609Z" fill="white"/>
<path d="M83.6878 23.7387C80.5745 23.7387 77.9269 25.7298 76.159 29.5475H75.7393L76.6649 24.2776H71.1139L67.5809 43.9449H73.3418L75.2764 32.9909C75.7393 30.5431 77.5043 28.8413 79.9449 28.8413C82.0464 28.8413 82.7621 30.2113 82.4258 32.2024L80.3244 43.9449H86.0451L88.3592 30.9572C89.2015 26.4758 87.4767 23.7358 83.6907 23.7358L83.6878 23.7387Z" fill="white"/>
<path d="M98.3631 19.9209L99.4986 22.658L110.897 18.2191L109.298 14.4014L98.3631 19.9209Z" fill="white"/>
<path d="M101.686 23.7388C95.6724 23.7388 91.5098 27.2672 90.4577 33.2831C89.1123 40.7513 92.8983 44.4868 99.0358 44.4868C104.46 44.4868 107.068 41.9567 108.583 38.6353L103.914 37.1406C103.158 38.6751 102.149 39.9628 99.4986 39.9628C96.8482 39.9628 95.5028 38.5531 95.7126 35.3991H109.212C109.422 34.6105 109.549 33.9894 109.675 33.3654C110.684 27.721 108.203 23.7388 101.683 23.7388H101.686ZM104.587 32.5343H96.2186C97.1011 29.298 98.7426 27.9706 101.267 27.9706C103.957 27.9706 105.053 29.4654 104.59 32.5343H104.587Z" fill="white"/>
<path d="M122.838 23.7388C116.908 23.7388 112.576 27.0999 111.483 33.1583C110.264 40.0876 113.544 44.5265 120.357 44.5265C126.328 44.5265 130.617 41.0009 131.669 35.0672C132.888 28.0557 129.482 23.7388 122.838 23.7388ZM126.075 34.3609C125.486 37.8043 123.847 39.7132 120.777 39.7132C117.497 39.7132 116.445 37.4724 117.118 33.7795C117.707 30.3361 119.346 28.467 122.375 28.467C125.612 28.467 126.748 30.6652 126.075 34.3581V34.3609Z" fill="white"/>
<path d="M6.41306 35.3991C6.09972 41.449 9.70459 44.4868 15.2298 44.4868C20.7549 44.4868 23.2617 41.9567 24.7766 38.6353L20.1081 37.1406C19.3521 38.6751 18.3431 39.9628 15.6926 39.9628C13.0421 39.9628 11.6968 38.5531 11.9066 35.3991H18.9554L20.1771 32.5372H12.4097C13.2922 29.3009 14.9337 27.9735 17.4576 27.9735C19.4527 27.9735 20.5652 28.7988 20.821 30.4751H20.8297L25.8288 28.8726C25.0555 25.7242 22.474 23.7388 17.8745 23.7388C12.1165 23.7388 8.06313 26.9779 6.80402 32.5343C6.80402 32.5343 6.40731 34.6361 6.40731 35.3962L6.41306 35.3991Z" fill="white"/>
</g>
<defs>
<clipPath id="clip0_10460_3216">
<rect width="125.521" height="30.125" fill="white" transform="translate(6.39291 14.4014)"/>
</clipPath>
</defs>
</svg>
