<svg width="125" height="48" viewBox="0 0 125 48" fill="none" xmlns="http://www.w3.org/2000/svg">
<rect width="125" height="48" fill="white"/>
<g clip-path="url(#clip0_10460_1621)">
<path d="M37.5592 19.7211L37.6279 19.3573H32.6009L28.9823 25.4065H28.38L26.7036 19.3573H21.6788L21.6124 19.7211L24.8622 26.8278L18.8985 34.6621L18.8298 35.0259H24.0904L27.709 28.8457H28.3136L29.9878 35.0259H35.0148L35.0812 34.6621L31.8314 27.5215L37.5592 19.7211Z" fill="#4141FF"/>
<path d="M45.9689 18.9122C41.2442 18.9122 37.7928 21.5899 36.9225 26.4166C35.9515 31.9369 38.5646 35.4733 43.9924 35.4733C48.7515 35.4733 52.1685 32.6646 53.0044 27.9373C53.9755 22.3514 51.2616 18.9122 45.9689 18.9122ZM48.5477 27.3747C48.0782 30.1179 46.7727 31.6387 44.3268 31.6387C41.7137 31.6387 40.8754 29.8535 41.4114 26.9114C41.8808 24.1682 43.1863 22.6791 45.6002 22.6791C48.1812 22.6791 49.0859 24.4303 48.55 27.3724L48.5477 27.3747Z" fill="#4141FF"/>
<path d="M66.6724 18.9122C64.1921 18.9122 62.0828 20.4985 60.6744 23.54H60.34L61.0774 19.3415H56.655L53.8404 35.0101H58.4299L59.9713 26.2832C60.34 24.3331 61.7462 22.9773 63.6906 22.9773C65.3647 22.9773 65.935 24.0688 65.667 25.655L63.9929 35.0101H68.5504L70.394 24.663C71.0651 21.0928 69.6909 18.9099 66.6747 18.9099L66.6724 18.9122Z" fill="#4141FF"/>
<path d="M78.364 15.8707L79.2686 18.0512L88.3493 14.5148L87.076 11.4733L78.364 15.8707Z" fill="#4141FF"/>
<path d="M81.0115 18.9122C76.2203 18.9122 72.9041 21.7232 72.0659 26.516C70.9941 32.4657 74.0103 35.4417 78.8999 35.4417C83.2215 35.4417 85.2988 33.4261 86.5057 30.78L82.7864 29.5891C82.1841 30.8116 81.3802 31.8375 79.2686 31.8375C77.157 31.8375 76.0852 30.7145 76.2524 28.2017H87.0073C87.1745 27.5735 87.2752 27.0786 87.376 26.5815C88.1799 22.0848 86.2034 18.9122 81.0092 18.9122H81.0115ZM83.3223 25.9194H76.6555C77.3586 23.3411 78.6663 22.2836 80.6771 22.2836C82.8207 22.2836 83.6933 23.4745 83.3246 25.9194H83.3223Z" fill="#4141FF"/>
<path d="M97.8629 18.9122C93.1382 18.9122 89.6868 21.5899 88.8165 26.4166C87.8455 31.9369 90.4586 35.4733 95.8864 35.4733C100.643 35.4733 104.06 32.6646 104.898 27.9373C105.869 22.3514 103.156 18.9122 97.8629 18.9122ZM100.442 27.3747C99.9722 30.1179 98.6668 31.6387 96.2208 31.6387C93.6077 31.6387 92.7695 29.8535 93.3054 26.9114C93.7749 24.1682 95.0803 22.6791 97.4942 22.6791C100.073 22.6791 100.978 24.4303 100.442 27.3724V27.3747Z" fill="#4141FF"/>
<path d="M5.10915 28.2017C4.85951 33.0216 7.73144 35.4417 12.1332 35.4417C16.535 35.4417 18.5321 33.4261 19.739 30.78L16.0197 29.5891C15.4174 30.8116 14.6135 31.8375 12.502 31.8375C10.3904 31.8375 9.31856 30.7145 9.48575 28.2017H15.1014L16.0747 25.9217H9.88654C10.5896 23.3434 11.8973 22.2859 13.9082 22.2859C15.4976 22.2859 16.3839 22.9434 16.5877 24.2789H16.5946L20.5773 23.0022C19.9612 20.4939 17.9046 18.9122 14.2402 18.9122C9.65293 18.9122 6.42373 21.4927 5.42062 25.9194C5.42062 25.9194 5.10457 27.5938 5.10457 28.1994L5.10915 28.2017Z" fill="#4141FF"/>
</g>
<defs>
<clipPath id="clip0_10460_1621">
<rect width="100" height="24" fill="white" transform="translate(5.0931 11.4733)"/>
</clipPath>
</defs>
</svg>
