<svg width="178" height="43" viewBox="0 0 178 43" fill="none" xmlns="http://www.w3.org/2000/svg">
<g clip-path="url(#clip0_10492_2)">
<path d="M57.492 14.6055L57.6137 13.9613H48.7117L42.3039 24.6733H41.2372L38.2685 13.9613H29.3706L29.253 14.6055L35.0079 27.1902L24.4471 41.0635L24.3254 41.7077H33.6411L40.049 30.7636H41.1196L44.0843 41.7077H52.9863L53.1039 41.0635L47.349 28.4187L57.492 14.6055Z" fill="#4141FF"/>
<path d="M72.3842 13.173C64.0175 13.173 57.9057 17.9147 56.3646 26.462C54.645 36.2376 59.2725 42.5 68.8842 42.5C77.3117 42.5 83.3627 37.5261 84.843 29.155C86.5625 19.2633 81.7567 13.173 72.3842 13.173ZM76.9508 28.1586C76.1194 33.0164 73.8077 35.7094 69.4763 35.7094C64.8489 35.7094 63.3646 32.5483 64.3136 27.3383C65.145 22.4805 67.4566 19.8435 71.7312 19.8435C76.3019 19.8435 77.9039 22.9446 76.9548 28.1546L76.9508 28.1586Z" fill="#4141FF"/>
<path d="M109.047 13.173C104.655 13.173 100.919 15.982 98.4251 21.368H97.833L99.1389 13.9332H91.3076L86.3233 41.6797H94.4507L97.1801 26.2259C97.833 22.7726 100.323 20.3717 103.766 20.3717C106.731 20.3717 107.741 22.3044 107.266 25.1135L104.302 41.6797H112.372L115.637 23.3568C116.825 17.0344 114.392 13.169 109.051 13.169L109.047 13.173Z" fill="#4141FF"/>
<path d="M129.751 7.78693L131.352 11.6484L147.433 5.38603L145.178 0L129.751 7.78693Z" fill="#4141FF"/>
<path d="M134.439 13.173C125.954 13.173 120.082 18.1508 118.598 26.638C116.7 37.174 122.041 42.444 130.7 42.444C138.352 42.444 142.031 38.8746 144.168 34.1889L137.582 32.0801C136.515 34.2449 135.092 36.0616 131.352 36.0616C127.613 36.0616 125.715 34.0728 126.011 29.6232H145.056C145.352 28.5107 145.531 27.6344 145.709 26.7541C147.133 18.7911 143.633 13.173 134.435 13.173H134.439ZM138.531 25.5816H126.725C127.97 21.0159 130.286 19.1432 133.847 19.1432C137.643 19.1432 139.188 21.252 138.535 25.5816H138.531Z" fill="#4141FF"/>
<path d="M164.28 13.173C155.913 13.173 149.801 17.9147 148.26 26.462C146.541 36.2376 151.168 42.5 160.78 42.5C169.203 42.5 175.254 37.5261 176.739 29.155C178.458 19.2633 173.652 13.173 164.28 13.173ZM168.846 28.1586C168.015 33.0164 165.703 35.7094 161.372 35.7094C156.745 35.7094 155.26 32.5483 156.209 27.3383C157.041 22.4805 159.352 19.8435 163.627 19.8435C168.193 19.8435 169.795 22.9446 168.846 28.1546V28.1586Z" fill="#4141FF"/>
<path d="M0.0284058 29.6232C-0.413654 38.1584 4.67206 42.444 12.4669 42.444C20.2617 42.444 23.7982 38.8746 25.9355 34.1889L19.3492 32.0801C18.2826 34.2449 16.8591 36.0616 13.1199 36.0616C9.3806 36.0616 7.48258 34.0728 7.77864 29.6232H17.7229L19.4466 25.5856H8.48837C9.73343 21.0199 12.0492 19.1472 15.61 19.1472C18.4246 19.1472 19.9941 20.3116 20.355 22.6765H20.3672L27.4199 20.4157C26.3289 15.974 22.687 13.173 16.198 13.173C8.0747 13.173 2.35632 17.7427 0.579966 25.5816C0.579966 25.5816 0.0202946 28.5467 0.0202946 29.6191L0.0284058 29.6232Z" fill="#4141FF"/>
</g>
<defs>
<clipPath id="clip0_10492_2">
<rect width="177.083" height="42.5" fill="white"/>
</clipPath>
</defs>
</svg>
