<?xml version="1.0" encoding="UTF-8"?>
<svg id="Layer_6" data-name="Layer 6" xmlns="http://www.w3.org/2000/svg" viewBox="0 0 1850.21 1743.61">
  <defs>
    <style>
      .cls-1 {
        fill: #e1d7d4;
      }

      .cls-2 {
        fill: #fefefd;
      }

      .cls-3 {
        fill: #270906;
      }
    </style>
  </defs>
  <g id="l1QDwp">
    <g>
      <path class="cls-3" d="M848.74,943.6c-21.65,30.17-73.15,17.91-96.5-4.9-7.64-7.47-10.22-16.46-16.17-23.89-15.26-19.06-34.95-21.36-57.69-15.13-34.86,9.55-38.89,58.69-73.97,63.74-45.55,6.55-72.26-23.31-69.87-67.37-11.34,13.48-19.12,28.05-32.64,39.97-44.25,39.03-88.96,29.95-142.66,25.14-31.93-2.86-53.8,3.28-73.33-29.32-25.41-42.41-25.2-225.32-2.28-269.17,18.8-35.97,52.37-35.22,88.26-34.62,32.78.54,79.99,1.77,109.33,15.85,48.72,23.39,79.15,90.94,79.77,143.2.08,6.27-6.17,45.82-3.91,46.36,5.46,1.3,8.04-16.98,12.45-20.09,25.83-46.48,42.29-149.88,90.09-175.3,37.9-20.16,99.31-7.04,119.99,32.92,20.74,40.07,44.32,107.72,60.98,151.82,7.86,20.82,12.94,42.86,21.91,63.24,8.99-44.09,83.9-88.17,76.21-133.84-3.1-18.41-25.39-12.99-39.88-17.68-45.81-14.82-57.99-90.05-7.62-102.71,30.4-7.64,157.58-7.41,191.33-3.4,14.99,1.78,28.14,9.68,32.9,24.68,1.36,4.27.43,14.63,2.45,15.11,5.7,1.37,8.32-18.11,15.02-20.02,39.27-22.84,98.06-31.05,115.15,22.51l37.55,202.83c2.82,0,1.51-51.07,1.36-56.46-1-35.89-5.74-77.02-5.29-112.59,1.15-90.26,104.93-72.79,166.77-73.73,12.9-.2,25.54-3.95,40.04-2.69,34.75,3,52.62,30.07,48.74,63.94-3.09,27.01-27.76,30.72-29.94,45.26-3.18,21.17,15.88,24.98,19.38,40.38s-.58,33.97-11.94,44.59c-9.62,8.99-26.52,10.71-25.11,27.24,1.98,23.11,56.48,20.13,57.72,57.92.99,30.1-22.18,49.66-49.57,55.62-33.21,7.23-145.06,3.27-175.07-11.43-16.84-8.25-32.06-26.17-33.38-45.51l-17.57,33.73c-30.46,34.46-97.71,28.73-118.05-14.51-11.9-25.29-22.54-95.92-26.68-126.05-4.61-33.57-4.04-68.27-11.68-101.01-14.17,44.66-67.02,66.27-71.46,116.34-4.72,53.21,21.81,32.46,53.26,47.1,32.3,15.04,34.93,59.69,11.05,83.55-9.11,9.1-32.85,19.07-45.7,20.65-37.65,4.6-147.02,3.17-180.05-12.18-9.08-4.22-11.81-6.08-16.21-15.08-2.11-4.3-1.08-11.54-6.26-14.97-1.72.03-8.8,16.54-11.27,19.98Z"/>
      <path class="cls-1" d="M866.27,938.59l-17.53,5.01c2.47-3.44,9.55-19.95,11.27-19.98,5.17,3.43,4.15,10.67,6.26,14.97Z"/>
    </g>
  </g>
</svg>