<?xml version="1.0" encoding="UTF-8"?>
<svg id="Layer_1" data-name="Layer 1" xmlns="http://www.w3.org/2000/svg" viewBox="0 0 1024 1024">
  <defs>
    <style>
      .cls-1 {
        fill: transparent;
      }
    </style>
  </defs>
  <g id="K34VBN">
    <g>
      <path class="cls-1" d="M1024,0v1024H0V0h1024ZM573.98,142.01c-6.94.81-6.36,9.63-12.47,14-1.74,1.24-9.48,3.34-5.9,6.07,2.76,2.11,5.8,1.64,8.82,5.99,2.16,3.11,2.94,11.26,5.19,11.81,4,.98,4.47-5.86,5.65-8.12,3.47-6.63,6.43-6.3,12.71-9.26-2.34-4.55-8.24-5.36-10.84-10.14-1.57-2.87-1.9-7.2-3.15-10.35ZM439.71,151.3c-2.01-1.62-6.19-2.24-7.61.31-23.6,35-36.12,75.66-56.94,112.06-19.21,33.59-43.01,61.46-63.99,93.01-5.45,8.2-8.46,10.65.34,18.29,15.1,13.11,39.3,22.7,54.49,36.51,8.74,7.94,4.55,5.84,4.9,15.01,1.99,52.56,4.41,105.41,2.13,158.05-.54,12.45-5.28,32.81-2.09,44.01,1.87,6.58,6.55,11.1,13.08,12.92,18.19.83,67.05,18.07,81.49,6.55,9.21-7.35-4.91-19.46-11.2-23.85-14.33-10-28.58-12.26-36.51-30.49-11.17-25.7-11.52-87.85-11.78-117.22-.05-5.42-1.45-10.91-1.08-17,.68-11.22,2.52-20.74,15.83-15.74,16.55,6.21,43.51,39.4,58.2,52.8,7.25,6.61,19.2,17.95,27.07,22.93,2.53,1.6,4.65,2.26,7.02-.13,9.16-24.89,16.91-53.64,32.12-75.62,6.36-9.19,19.61-21.13,26.85-6.24l37.71,131.32c2.42,7.44-5.32,6.84-8.21,11.27-8.06,12.36,15.84,12.82,16.51,19.51l-1.07,2.95c-5.89,3.87-29.14,18-27.59,25.57,6.04,6.08,15.67,11.51,23.58,15.46,2.86,1.42,11.34,5.91,13.77,6.32,3.39.58,11.35-4.09,14.57-6.02,26.91-16.07,51.36-40.19,78.6-56.4,3.91-4.4,3.83-11.38-.99-14.86l-29.69-16.38-4.27.27c-5.75,1.96-23.81,14.58-28.48,14.64-6.51.08-3.9-11.04-9.52-13.58-7.04-3.17-11.74,4.64-15.58,1.57l-47.49-159.59c-.37-15.28,22.14-49.31,30.67-63.41,6.1-10.11,18.17-19.7,6.43-30.59-24.27-22.52-60.97-38.13-88.02-60.98-32.97-27.85-65.57-60.24-93.27-93.21ZM529.01,210l3.49-1c.14-6.62,4.23-9.56,7.49-14.49-7.02-2.56-6.89-6.04-9.79-11.22-4-7.15-4.71,4.74-6,7.42s-5.78,4.76-5.25,7.76c4.85,2.13,9.46,5.85,10.05,11.53ZM561.01,238c1.82,1.28,7.12-7.98,9.99-8.53l-5.5-11.45c-3.05,3.03-4.55,7.57-9.5,8,2.65,3.99,4.6,6.99,5.01,11.98ZM719.71,600.21c-5.56,1.27-8.13,8.14-3.08,11.66,2.84,1.98,8.17,2.07,12.06,3.94,6.11,2.94,10.86,9.69,16.38,13.62,5.2,3.7,21.42,14.28,25.42,5.55,4.12-8.99-12.64-13.71-18.39-17.58-9.7-6.53-18.68-20.33-32.38-17.19ZM688.71,624.21c-4.07,1.18-4.4,6.21-2.96,9.54,2.57,5.91,25.27,10.45,31.94,14.05,5.53,2.98,20.76,19.86,26.18,10.58,3.24-5.55-2.54-9.97-6.41-13.35-9.19-8.04-23.34-14.42-34.95-18.05-4.13-1.29-9.55-4.01-13.81-2.77ZM656.74,649.21c-8.48,1.64-6.75,10.25-.69,14.24,10.49,6.9,29.19,4.3,41.45,13.55,4.46,3.37,11.65,17.61,18.01,12,7.32-6.44-4.91-18.83-10.18-22.84-4.27-3.25-8.76-5.4-13.79-7.21-11.24-4.04-23.59-5.39-34.79-9.75ZM527,799.5v-60c-2.96-2.52-8.85.6-13-.49,7.78,5,6.49,17.86,6.01,26.5-.41,7.41-.64,7.14-.02,15s-2.17,16.42.16,23.85c.98,3.11,10.05,1.11,12.85,1.64-1.36-2.31-5.37-3.54-6-6.49ZM118,742h-22c1.64,3.09,6.21,2.19,5.91,6.56-.86,15.82,1.47,33.38.13,48.99-.14,1.63-.14,3.99-1.3,5.21-1.29,1.36-5.26,1.16-5.74,3.25h49l.99-18c-3.33,3.02-2.97,7.72-6.15,11.34-4.17,4.76-20.14,7.49-24.82,4.13-1.19-.85-2.02-2.08-2.58-3.42l-.39-50.49c.21-1.56.86-2.93,1.91-4.09,1.71-1.87,4.3-1.58,5.03-3.47ZM207,806h16l-7-7.5v-45.5c5.84,4.84,20.78,51.17,23.5,52.03.58.18,2.42.31,2.59-.62l19.15-48.67,2.76-1.74v45.5c0,2.45-5.44,5.67-7.99,5.51v.99s23.99,0,23.99,0c-.71-2.2-4.59-1.45-6.09-3.41-.82-1.06-.79-1.84-.95-3.05-.98-7.25-1.19-44.42.07-51.02.57-2.97,3.88-3.96,4.98-6.51l-14.53.96-18.98,48.04c-1.81.25-1.91-1.36-2.53-2.47-3.56-6.45-17.11-44.64-19.95-46.05l-14.01-.48c-.69,3.1,2.79,1.86,4.45,4.04.8,1.06,1.25,3.18,1.45,4.55,1.34,9.24.95,33.2.13,42.94-.58,6.81-1.88,8.32-7.03,12.47ZM337.75,750.75c5.81-5.83-7.17-13.83-8.47-4.12-.69,5.19,5.61,7,8.47,4.12ZM649,787l-3.97-2.53-30.04-41.96-12.99-.5c3.17,3.22,5.2,3.53,5.91,8.58,1.31,9.27.98,33.24.13,42.95-.21,2.4-.79,5.89-2.16,7.84-1.91,2.72-5.36,1.48-4.88,4.62h17c-1.31-1.98-8-4.36-8-7.5v-46.5c2.41,1.48,4.12,4.41,5.82,6.68,10.34,13.8,20.82,32.77,31.76,45.24,1.01,1.15,1.53,2.46,3.42,2.08v-55.5c0-2.56,6.29-7.1,6-7.49-2.04-1.08-13.04-2.01-12.98.49,1.55,1.31,4.98,5.11,4.98,7v36.5ZM742.14,765.86l-.63-10.85-3.95,7.05-8.56,6.44,5.01.51c1.21,1.2-1.32,28.76.43,34.07,2.35,7.13,19.75,4.1,18.06-4.06-1.58,4.62-9.6,7.41-11.07,2.08-1.02-3.67-.96-27.69.46-30.69,2.44-5.16,6.49-.16,10.11-2.9l-9.87-1.64ZM713.99,756.01c-2.33-.5-1.6.28-2.24,1.28-3.45,5.46-4.14,8.69-11.75,10.21l6,1.51.19,34.31c1.61,5.36,16.54,4.97,17.83-1.8l-6.44,2.45c-1.59-.25-3.85-.97-4.41-2.63-.51-1.5-.67-29.7-.2-31.67l10.03-2.17-8.56-1.43-.44-10.06ZM914.11,770.88l4.46-.81c2.49-7.16-4.37-7.51-9.56-6.06-.71,3.07,2.03,1.48,3.51,2.96.96.96,1.05,2.7,1.6,3.91ZM185.99,802l-4.42,1.98c-6.37-1.86,2.68-27.69-4.05-34-5.28-4.94-21.24-7.15-25.59-.54-1.3,1.98-1.2,6.74,1.57,6.64,6.6-.24,2.79-7.55,7.21-8.88,9.75-2.95,14.51,8.12,12.31,16.15-.25.93-1.93.59-1.99.68-.38.57,1.47,1.42,1.54,2.42.47,6.39-3.8,15.1,3.04,19.44,3.59,2.28,11.09,1.5,10.39-3.89ZM320.99,803c-4.05,1.97-5.49,1.37-6.55-2.94-2.18-8.95,4.83-22.83-1.89-30.11-3.58-3.88-13.64-5.54-18.61-4.5-12.07,2.51-7.7,14.95-2.41,9.58,3.06-3.11-.67-9.95,9.74-7.8,8.65,1.79,6.58,9.39,6.8,16.22l-3.08,1.05c5.15,1.91,2.09,4.91,1.97,8.95-.08,2.81-.33,5.77.59,8.5,3,8.91,15.91,3.87,13.44,1.05ZM371.99,767c-4.61,2.29-7.95-2.43-12.39-2-8.63.85-14.26,10.49-9.08,17.97,4.31,6.23,19.75,5.11,19.44,14.42-.26,7.62-9.38,11.32-14.99,6.14l-6.96-9.53v10.99c4.02-1.9,6.59,1.39,10.58,1.91,9.62,1.27,17.46-4.18,16.44-14.43-1.19-12.07-17.53-9.84-20.29-15.72-3.9-8.32,5.33-12.96,11.77-7.78l5.48,7.01v-8.99ZM387.35,770.35c-7.38,6.83-8.53,19.59-3.19,27.99,13.71,21.56,45.1.03,32.87-22.87-5.93-11.11-20.44-13.68-29.68-5.12ZM467,806c-2.07-2.74-4.3-2.58-4.94-6.56-2.4-14.93,8.25-41.68-19.06-32.43l7.98,1.51c5.46,2.45,4.68,24.24,3.92,29.89-.59,4.39-2.1,4.76-4.9,7.6h17ZM515,767.01c-30.94-12.91-35.18,46.51-5.71,39.77,1.65-.38,8.09-4.02,6.21-5.78-17.66,11.85-20.8-13.11-17.04-25.04,2.39-7.57,8.7-11.53,16.05-6.98l.49-1.98ZM668,781h22.5c5.59,0,1.96-10.85-3.15-13.85-10.04-5.89-21.95,2.52-25.53,12.16-6.02,16.19,4.57,31.38,22.25,27.25,4.28-1,10.35-5.67,9.92-10.57-13.19,16.24-28.31,2.37-25.99-15ZM773.76,765.22c-17.14,2.39-23.94,26.15-10.79,37.31,14.13,11.99,33-1.18,32.05-17.99-.59-10.39-10.51-20.82-21.26-19.32ZM874.99,803l-5.04.59c-5.23-9.04,3.71-24.68-2.4-32.64-5.85-7.62-29.95-9.64-26.54,5.05,10.24.36,1.95-11.83,15.29-8.78,6.1,1.39,9.53,14.5,3.72,16.8,4.45,5-.61,11.18,1.2,17.28,1.57,5.29,12.09,9.01,13.79,1.71ZM905.71,768.3c-2.82-2.23-10.16-3.59-13.77-2.86-15.45,3.13-16.21,21.63-1.94,27.07l-4.76,9.17,3.74,7.32c-10.86.44-13.85,12.1-4.93,18.44,7.9,5.61,26.03,5.24,32.35-2.51,6.21-7.61,4.75-20.19-5.98-21.86-6.82-1.06-25.08,3.5-19.03-9.16,11.1-.93,21.43-6.2,18.39-19.2-.25-1.05-3.35-5.83-4.08-6.41ZM936,767c-.63.23-2.19-.34-3.25.21-15.82,8.16-16.68,37.29,2.86,39.67,5.06.62,10.68.36,14.74-3.03,1.27-1.05,7.52-8.59,2.67-7.85-1.14,6.04-7.03,7.62-12.54,7.02-9.42-1.02-12.63-13.96-11.48-22.03h22.5c1.61,0,2.59-3.7,2.47-5.37-.51-7.47-9.51-11.53-16.08-10.19-1.78.36-1.78,1.51-1.89,1.55,4.8-1.74,13.29,2.3,11.85,8.3-.19.78-3.1,3.7-3.35,3.7h-14.5c-1.8-2.85,4.33-11.39,6-12ZM338,766l-12.99,1.01c.13,1.92,2.8.95,4.07,2.67,3.02,4.1,2.9,29.34-.04,33.59-.81,1.17-2.8,1.19-3.03,2.73h17c-.68-1.74-5-3.52-5-5.5v-34.5ZM425,806h17c-.76-2.24-4.09-2.31-4.81-4.69-1.5-4.92.26-18.54-.15-24.85-.22-3.49-1.62-6.86-1.04-10.46l-12,1.02c2.22,2.76,4.47,2.05,5.04,6.44s.68,23.07-.07,27.03c-.51,2.68-3.03,3.31-3.98,5.52ZM548,800.5c-1.86-8.68,1.38-23.58,0-33-1.19-2.99-12.97-1.06-13.01,0,2.11,1.48,4.43,2.07,4.98,5.03,2.42,12.92-8.03,40.39,15.86,33.76,1.77-.49,2.6.32,2.16-2.28-3.23,2.11-9.22.1-9.99-3.5ZM573,766l-13.01,1.5c10,3.45,4.92,18.05,4.97,25.95.02,3.37,1.86,8,1.18,11.91l1.32,1.38,10.54-.75c.64-3.05-4.99-2.05-4.99-5.49v-34.5ZM813,767h-17c1.52,2.06,3.07,2.45,4.57,4.93,5.77,9.54,9.07,24.46,14.42,34.66.22,2.19-3.96,13.96-5.21,15.19-1.8,1.77-10.54,1.08-8.35,8.27,1.06,1.43,4.16,1.3,5.57.45,3.61-2.2,19.73-48.64,24.12-56.88,1.34-2.5,2.71-4.29,4.88-6.12l-11.99-.48c.04,1.74,2.63,1.23,3.52,2.97,2.51,4.89-5.85,21.58-8.02,27-1.41-.04-11.28-24.09-11.3-25.67-.07-3.56,4-2.13,4.8-4.31ZM166,784.01c-21.71.9-21.21,32.24,2.99,19.97v-1.98c-8.68,3.84-13.31-2.51-10.44-10.95,1.35-3.97,5.36-4.05,7.45-7.04ZM302,784.01c-22.93-.37-21.91,33.49,2,19.48-2.45-1.16-5.28.17-7.97-1.02-4.64-2.05-3.53-10.46-.89-13.84,2.13-2.72,5.21-2.25,6.86-4.63ZM857,784.01c-22.8-1.65-23.47,33.77,1,19.49-3.99-1.25-8.17,1.13-10.23-3.75-2.18-5.17-.22-10.16,4.27-13.2,1.83-1.24,4.5-.86,4.96-2.53Z"/>
      <path d="M439.71,151.3c27.7,32.97,60.31,65.37,93.27,93.21,27.05,22.85,63.75,38.45,88.02,60.98,11.74,10.9-.32,20.49-6.43,30.59-8.52,14.11-31.04,48.14-30.67,63.41l47.49,159.59c3.84,3.08,8.54-4.74,15.58-1.57,5.62,2.53,3.01,13.66,9.52,13.58,4.67-.06,22.73-12.68,28.48-14.64l4.27-.27,29.69,16.38c4.82,3.48,4.9,10.47.99,14.86-27.24,16.21-51.69,40.33-78.6,56.4-3.23,1.93-11.19,6.59-14.57,6.02-2.43-.41-10.92-4.9-13.77-6.32-7.91-3.94-17.54-9.37-23.58-15.46-1.54-7.57,21.71-21.7,27.59-25.57l1.07-2.95c-.67-6.69-24.57-7.15-16.51-19.51,2.89-4.43,10.63-3.82,8.21-11.27l-37.71-131.32c-7.25-14.9-20.49-2.96-26.85,6.24-15.21,21.98-22.96,50.73-32.12,75.62-2.37,2.4-4.49,1.74-7.02.13-7.87-4.98-19.82-16.32-27.07-22.93-14.69-13.4-41.65-46.59-58.2-52.8-13.31-4.99-15.15,4.52-15.83,15.74-.37,6.09,1.04,11.58,1.08,17,.26,29.37.6,91.53,11.78,117.22,7.93,18.24,22.18,20.5,36.51,30.49,6.29,4.39,20.41,16.5,11.2,23.85-14.44,11.52-63.3-5.72-81.49-6.55-6.53-1.83-11.2-6.34-13.08-12.92-3.19-11.2,1.55-31.56,2.09-44.01,2.29-52.63-.14-105.49-2.13-158.05-.35-9.17,3.84-7.06-4.9-15.01-15.19-13.81-39.39-23.4-54.49-36.51-8.8-7.64-5.79-10.09-.34-18.29,20.98-31.56,44.78-59.43,63.99-93.01,20.81-36.39,33.34-77.06,56.94-112.06,1.42-2.56,5.6-1.93,7.61-.31ZM485,373.99c14.27-2.99,29.01-7.95,42.02-14.47,6.57-3.29,27.85-15.42,30.85-21.14,4.13-7.89-7.96-15.61-13.96-19.78-45.64-31.76-103.81-30.72-141.88,11.94-4.92,5.51-19.75,25.45-20.02,32.09-.24,6.01,15.89,9.62,20.98,10.89,21.21,5.3,44.37,6.75,66.01,3.48l-16.69-6.8c-39.19-25.95-6.86-90.99,37.73-65.73,22.54,12.77,24.64,40.3,7.99,59.06-4.07,4.58-8.53,6.69-13.02,10.47Z"/>
      <path d="M207,806c5.16-4.14,6.46-5.66,7.03-12.47.82-9.74,1.21-33.7-.13-42.94-.2-1.36-.65-3.49-1.45-4.55-1.66-2.19-5.14-.94-4.45-4.04l14.01.48c2.83,1.42,16.38,39.61,19.95,46.05.62,1.12.72,2.72,2.53,2.47l18.98-48.04,14.53-.96c-1.1,2.56-4.41,3.54-4.98,6.51-1.26,6.6-1.05,43.77-.07,51.02.16,1.21.14,1.98.95,3.05,1.5,1.95,5.38,1.21,6.09,3.41h-24v-.99c2.56.16,8-3.06,8-5.51v-45.5l-2.76,1.74-19.15,48.67c-.16.93-2.01.8-2.59.62-2.72-.86-17.66-47.18-23.5-52.03v45.5l7,7.5h-16Z"/>
      <path d="M656.74,649.21c11.2,4.36,23.56,5.71,34.79,9.75,5.03,1.81,9.52,3.96,13.79,7.21,5.27,4.01,17.5,16.4,10.18,22.84-6.37,5.6-13.55-8.64-18.01-12-12.26-9.25-30.96-6.65-41.45-13.55-6.06-3.98-7.79-12.6.69-14.24Z"/>
      <path d="M649,787v-36.5c0-1.89-3.43-5.69-4.98-7-.06-2.5,10.93-1.57,12.98-.49.29.39-6,4.93-6,7.49v55.5c-1.89.38-2.41-.93-3.42-2.08-10.94-12.47-21.42-31.44-31.76-45.24-1.7-2.27-3.4-5.2-5.82-6.68v46.5c0,3.14,6.69,5.52,8,7.5h-17c-.47-3.15,2.97-1.9,4.88-4.62,1.37-1.95,1.95-5.44,2.16-7.84.85-9.71,1.18-33.68-.13-42.95-.71-5.05-2.73-5.36-5.91-8.58l12.99.5,30.04,41.96,3.97,2.53Z"/>
      <path d="M688.71,624.21c4.26-1.24,9.68,1.48,13.81,2.77,11.61,3.63,25.77,10.01,34.95,18.05,3.87,3.38,9.64,7.8,6.41,13.35-5.42,9.29-20.65-7.59-26.18-10.58-6.67-3.6-29.37-8.14-31.94-14.05-1.45-3.33-1.11-8.36,2.96-9.54Z"/>
      <path d="M719.71,600.21c13.71-3.13,22.69,10.67,32.38,17.19,5.75,3.87,22.51,8.59,18.39,17.58-4,8.73-20.22-1.85-25.42-5.55-5.52-3.93-10.27-10.68-16.38-13.62-3.89-1.87-9.22-1.96-12.06-3.94-5.04-3.52-2.48-10.39,3.08-11.66Z"/>
      <path d="M905.71,768.3c.72.57,3.83,5.36,4.08,6.41,3.04,12.99-7.28,18.26-18.39,19.2-6.04,12.67,12.21,8.11,19.03,9.16,10.73,1.66,12.19,14.25,5.98,21.86-6.33,7.76-24.46,8.12-32.35,2.51-8.92-6.34-5.93-18,4.93-18.44l-3.74-7.32,4.76-9.17c-14.28-5.44-13.52-23.94,1.94-27.07,3.6-.73,10.95.63,13.77,2.86ZM892.72,767.19c-8.71,2.61-7.54,26.35,3.56,24.65,9.93-1.52,9.82-28.67-3.56-24.65ZM890.74,809.15c-3.57,1.12-6.53,4.67-6.68,8.44-.61,15.01,28.64,16.9,30.74,2.65,1.92-12.98-15.98-8.39-24.07-11.08Z"/>
      <path d="M118,742c-.73,1.89-3.32,1.6-5.03,3.47-1.05,1.15-1.7,2.53-1.91,4.09l.39,50.49c.55,1.34,1.39,2.57,2.58,3.42,4.68,3.36,20.65.62,24.82-4.13,3.18-3.63,2.81-8.32,6.15-11.34l-.99,18h-49c.48-2.09,4.45-1.89,5.74-3.25,1.16-1.22,1.16-3.58,1.3-5.21,1.34-15.6-1-33.16-.13-48.99.31-4.37-4.27-3.47-5.91-6.56h22Z"/>
      <path d="M387.35,770.35c9.25-8.56,23.75-6,29.68,5.12,12.23,22.9-19.16,44.44-32.87,22.87-5.34-8.4-4.19-21.16,3.19-27.99ZM396.75,767.25c-15.53,4.1-7.47,51.54,10.17,36.18,9.05-7.88,6.42-40.56-10.17-36.18Z"/>
      <path d="M773.76,765.22c10.74-1.5,20.67,8.93,21.26,19.32.96,16.81-17.91,29.99-32.05,17.99-13.15-11.16-6.34-34.93,10.79-37.31ZM771.7,767.21c-10.69,3.2-10.32,33.32.55,38.03,18.99,8.24,21.2-44.55-.55-38.03Z"/>
      <path d="M527,799.5c.63,2.95,4.64,4.18,6,6.49-2.81-.53-11.88,1.47-12.85-1.64-2.33-7.43.44-16.19-.16-23.85s-.39-7.6.02-15c.48-8.63,1.78-21.49-6.01-26.5,4.15,1.09,10.04-2.03,13,.49v60Z"/>
      <path d="M573.98,142.01c1.25,3.15,1.59,7.48,3.15,10.35,2.6,4.77,8.5,5.59,10.84,10.14-6.27,2.96-9.24,2.63-12.71,9.26-1.18,2.26-1.65,9.09-5.65,8.12-2.25-.55-3.03-8.7-5.19-11.81-3.03-4.35-6.06-3.88-8.82-5.99-3.57-2.73,4.17-4.82,5.9-6.07,6.1-4.36,5.52-13.18,12.47-14Z"/>
      <path d="M936,767c.11-.04.12-1.19,1.89-1.55,6.57-1.35,15.57,2.72,16.08,10.19.11,1.67-.86,5.37-2.47,5.37h-22.5c-1.15,8.06,2.06,21.01,11.48,22.03,5.51.6,11.4-.98,12.54-7.02,4.85-.75-1.4,6.79-2.67,7.85-4.07,3.39-9.68,3.65-14.74,3.03-19.53-2.38-18.68-31.51-2.86-39.67,1.06-.55,2.61.02,3.25-.21-1.67.61-7.8,9.15-6,12h14.5c.25,0,3.16-2.93,3.35-3.7,1.44-6-7.05-10.04-11.85-8.3Z"/>
      <path d="M668,781c-2.32,17.37,12.8,31.24,25.99,15,.43,4.9-5.64,9.57-9.92,10.57-17.69,4.12-28.27-11.06-22.25-27.25,3.59-9.65,15.49-18.06,25.53-12.16,5.12,3,8.74,13.85,3.15,13.85h-22.5ZM669,779h14.5c5.65,0,4.69-12.48-4.98-12.07-5.61.24-10.09,6.55-9.52,12.07Z"/>
      <path d="M813,767c-.81,2.18-4.87.75-4.8,4.31.03,1.58,9.9,25.63,11.3,25.67,2.18-5.42,10.53-22.11,8.02-27-.89-1.74-3.48-1.22-3.52-2.97l11.99.48c-2.17,1.83-3.54,3.62-4.88,6.12-4.39,8.24-20.51,54.68-24.12,56.88-1.41.85-4.51.99-5.57-.45-2.19-7.19,6.55-6.5,8.35-8.27,1.24-1.22,5.43-13,5.21-15.19-5.35-10.2-8.65-25.12-14.42-34.66-1.5-2.48-3.05-2.87-4.57-4.93h17Z"/>
      <path d="M371.99,767v8.99s-5.48-7.01-5.48-7.01c-6.44-5.18-15.68-.54-11.77,7.78,2.76,5.88,19.1,3.65,20.29,15.72,1.01,10.25-6.83,15.7-16.44,14.43-3.99-.53-6.56-3.81-10.58-1.91v-10.99s6.96,9.53,6.96,9.53c5.62,5.18,14.74,1.48,14.99-6.14.32-9.31-15.13-8.19-19.44-14.42-5.17-7.48.45-17.13,9.08-17.97,4.44-.43,7.78,4.28,12.39,2Z"/>
      <path d="M742.14,765.86l9.87,1.64c-3.61,2.74-7.67-2.25-10.11,2.9-1.42,3-1.48,27.01-.46,30.69,1.47,5.32,9.48,2.54,11.07-2.08,1.68,8.16-15.71,11.19-18.06,4.06-1.75-5.31.77-32.87-.43-34.07l-5.01-.51,8.56-6.44,3.95-7.05.63,10.85Z"/>
      <path d="M713.99,756.01l.44,10.06,8.56,1.43-10.03,2.17c-.46,1.97-.31,30.17.2,31.67.56,1.66,2.82,2.38,4.41,2.63l6.44-2.45c-1.29,6.77-16.21,7.16-17.83,1.8l-.19-34.31-6-1.51c7.61-1.52,8.3-4.75,11.75-10.21.63-1-.09-1.78,2.24-1.28Z"/>
      <path d="M185.99,802c.7,5.39-6.8,6.17-10.39,3.89-6.84-4.35-2.57-13.06-3.04-19.44-.07-1-1.92-1.85-1.54-2.42.06-.09,1.74.25,1.99-.68,2.2-8.04-2.56-19.1-12.31-16.15-4.42,1.34-.61,8.65-7.21,8.88-2.77.1-2.87-4.66-1.57-6.64,4.35-6.62,20.32-4.4,25.59.54,6.73,6.3-2.32,32.14,4.05,34l4.42-1.98Z"/>
      <path d="M320.99,803c2.47,2.82-10.45,7.86-13.44-1.05-.92-2.73-.67-5.69-.59-8.5.12-4.04,3.17-7.04-1.97-8.95l3.08-1.05c-.22-6.83,1.85-14.43-6.8-16.22-10.41-2.15-6.68,4.69-9.74,7.8-5.29,5.36-9.66-7.07,2.41-9.58,4.97-1.03,15.03.63,18.61,4.5,6.72,7.28-.29,21.16,1.89,30.11,1.05,4.31,2.49,4.9,6.55,2.94Z"/>
      <path d="M874.99,803c-1.69,7.3-12.21,3.59-13.79-1.71-1.81-6.1,3.26-12.28-1.2-17.28,5.81-2.3,2.38-15.41-3.72-16.8-13.34-3.05-5.05,9.15-15.29,8.78-3.41-14.69,20.69-12.67,26.54-5.05,6.11,7.96-2.83,23.6,2.4,32.64l5.04-.59Z"/>
      <path d="M548,800.5c.77,3.6,6.76,5.61,9.99,3.5.44,2.61-.39,1.79-2.16,2.28-23.89,6.63-13.44-20.84-15.86-33.76-.55-2.95-2.87-3.54-4.98-5.03.04-1.06,11.82-2.99,13.01,0,1.38,9.42-1.86,24.32,0,33Z"/>
      <path d="M425,806c.95-2.21,3.47-2.84,3.98-5.52.75-3.96.64-22.7.07-27.03s-2.83-3.68-5.04-6.44l12-1.02c-.59,3.61.81,6.98,1.04,10.46.41,6.32-1.35,19.94.15,24.85.72,2.38,4.05,2.45,4.81,4.69h-17Z"/>
      <path d="M515,767.01l-.49,1.98c-7.34-4.55-13.65-.59-16.05,6.98-3.77,11.93-.62,36.88,17.04,25.04,1.87,1.76-4.56,5.4-6.21,5.78-29.47,6.74-25.23-52.68,5.71-39.77Z"/>
      <path d="M467,806h-17c2.8-2.84,4.31-3.2,4.9-7.6.76-5.65,1.54-27.44-3.92-29.89l-7.98-1.51c27.3-9.26,16.66,17.49,19.06,32.43.64,3.98,2.87,3.83,4.94,6.56Z"/>
      <path d="M338,766v34.5c0,1.98,4.32,3.76,5,5.5h-17c.23-1.55,2.22-1.57,3.03-2.73,2.94-4.24,3.07-29.48.04-33.59-1.27-1.72-3.94-.75-4.07-2.67l12.99-1.01Z"/>
      <path d="M573,766v34.5c0,3.45,5.64,2.45,4.99,5.49l-10.54.75-1.32-1.38c.69-3.91-1.16-8.54-1.18-11.91-.05-7.9,5.03-22.51-4.97-25.95l13.01-1.5Z"/>
      <path d="M529.01,210c-.59-5.68-5.19-9.4-10.05-11.53-.53-3,3.9-4.96,5.25-7.76s1.99-14.58,6-7.42c2.9,5.18,2.77,8.66,9.79,11.22-3.26,4.93-7.36,7.87-7.49,14.49l-3.49,1Z"/>
      <path d="M302,784.01c-1.64,2.37-4.73,1.9-6.86,4.63-2.65,3.38-3.75,11.79.89,13.84,2.69,1.19,5.53-.14,7.97,1.02-23.91,14.01-24.93-19.85-2-19.48Z"/>
      <path d="M166,784.01c-2.09,2.99-6.1,3.07-7.45,7.04-2.87,8.44,1.76,14.79,10.44,10.95v1.98c-24.2,12.27-24.7-19.08-2.99-19.97Z"/>
      <path d="M857,784.01c-.45,1.67-3.13,1.29-4.96,2.53-4.5,3.04-6.46,8.04-4.27,13.2,2.07,4.88,6.25,2.5,10.23,3.75-24.47,14.29-23.8-21.14-1-19.49Z"/>
      <path d="M561.01,238c-.41-4.99-2.36-7.99-5.01-11.98,4.95-.43,6.45-4.97,9.5-8l5.5,11.45c-2.88.54-8.17,9.8-9.99,8.53Z"/>
      <path d="M337.75,750.75c-2.86,2.87-9.16,1.06-8.47-4.12,1.3-9.71,14.28-1.71,8.47,4.12Z"/>
      <path d="M914.11,770.88c-.55-1.21-.64-2.95-1.6-3.91-1.48-1.48-4.22.11-3.51-2.96,5.19-1.46,12.05-1.11,9.56,6.06l-4.46.81Z"/>
      <path class="cls-1" d="M485,373.99c4.49-3.78,8.95-5.88,13.02-10.47,16.65-18.76,14.55-46.29-7.99-59.06-44.59-25.26-76.91,39.78-37.73,65.73l16.69,6.8c-21.64,3.27-44.8,1.83-66.01-3.48-5.08-1.27-21.22-4.88-20.98-10.89.27-6.64,15.1-26.58,20.02-32.09,38.07-42.66,96.24-43.69,141.88-11.94,6,4.17,18.09,11.89,13.96,19.78-3,5.73-24.28,17.85-30.85,21.14-13.02,6.52-27.75,11.48-42.02,14.47Z"/>
      <path class="cls-1" d="M890.74,809.15c8.08,2.7,25.99-1.9,24.07,11.08-2.11,14.26-31.35,12.36-30.74-2.65.15-3.76,3.1-7.31,6.68-8.44Z"/>
      <path class="cls-1" d="M892.72,767.19c13.38-4.01,13.49,23.13,3.56,24.65-11.1,1.7-12.27-22.04-3.56-24.65Z"/>
      <path class="cls-1" d="M396.75,767.25c16.6-4.38,19.22,28.3,10.17,36.18-17.64,15.36-25.7-32.08-10.17-36.18Z"/>
      <path class="cls-1" d="M771.7,767.21c21.76-6.52,19.55,46.28.55,38.03-10.87-4.72-11.24-34.83-.55-38.03Z"/>
      <path class="cls-1" d="M669,779c-.57-5.52,3.91-11.83,9.52-12.07,9.67-.41,10.62,12.07,4.98,12.07h-14.5Z"/>
    </g>
  </g>
</svg>