<svg xmlns="http://www.w3.org/2000/svg" xmlns:xlink="http://www.w3.org/1999/xlink" width="1024" zoomAndPan="magnify" viewBox="0 0 768 767.999994" height="1024" preserveAspectRatio="xMidYMid meet" version="1.0"><path fill="#ffffff" d="M 768 0 L 768 768 L 0 768 L 0 0 Z M 430.484375 106.507812 C 425.28125 107.113281 425.714844 113.730469 421.132812 117.007812 C 419.828125 117.9375 414.023438 119.511719 416.707031 121.558594 C 418.777344 123.140625 421.058594 122.789062 423.324219 126.050781 C 424.941406 128.386719 425.527344 134.496094 427.214844 134.910156 C 430.214844 135.644531 430.566406 130.515625 431.453125 128.820312 C 434.054688 123.847656 436.273438 124.09375 440.984375 121.875 C 439.230469 118.460938 434.804688 117.855469 432.855469 114.269531 C 431.675781 112.117188 431.429688 108.871094 430.492188 106.507812 Z M 329.78125 113.476562 C 328.273438 112.261719 325.140625 111.796875 324.074219 113.707031 C 306.375 139.957031 296.984375 170.453125 281.371094 197.753906 C 266.960938 222.945312 249.113281 243.847656 233.378906 267.511719 C 229.289062 273.660156 227.03125 275.496094 233.632812 281.226562 C 244.957031 291.058594 263.109375 298.253906 274.5 308.609375 C 281.054688 314.566406 277.914062 312.988281 278.175781 319.867188 C 279.667969 359.289062 281.484375 398.925781 279.773438 438.40625 C 279.367188 447.742188 275.8125 463.011719 278.203125 471.414062 C 279.609375 476.347656 283.117188 479.738281 288.015625 481.101562 C 301.65625 481.726562 338.300781 494.65625 349.132812 486.015625 C 356.039062 480.503906 345.449219 471.421875 340.734375 468.128906 C 329.984375 460.628906 319.296875 458.933594 313.351562 445.261719 C 304.972656 425.984375 304.710938 379.371094 304.515625 357.34375 C 304.476562 353.28125 303.425781 349.164062 303.703125 344.59375 C 304.214844 336.179688 305.59375 329.039062 315.578125 332.789062 C 327.988281 337.449219 348.210938 362.339844 359.226562 372.390625 C 364.664062 377.347656 373.628906 385.851562 379.53125 389.585938 C 381.425781 390.789062 383.015625 391.28125 384.796875 389.488281 C 391.664062 370.824219 397.476562 349.261719 408.886719 332.773438 C 413.65625 325.882812 423.59375 316.925781 429.023438 328.09375 L 457.304688 426.585938 C 459.121094 432.164062 453.316406 431.714844 451.148438 435.039062 C 445.101562 444.308594 463.027344 444.652344 463.53125 449.671875 L 462.726562 451.882812 C 458.308594 454.785156 440.871094 465.382812 442.035156 471.058594 C 446.566406 475.621094 453.789062 479.691406 459.71875 482.65625 C 461.863281 483.71875 468.226562 487.085938 470.046875 487.394531 C 472.589844 487.832031 478.558594 484.328125 480.976562 482.878906 C 501.15625 470.828125 519.496094 452.738281 539.925781 440.582031 C 542.859375 437.28125 542.796875 432.046875 539.183594 429.433594 L 516.914062 417.148438 L 513.710938 417.351562 C 509.398438 418.824219 495.855469 428.289062 492.351562 428.332031 C 487.46875 428.394531 489.425781 420.050781 485.210938 418.148438 C 479.933594 415.769531 476.40625 421.628906 473.527344 419.324219 L 437.910156 299.632812 C 437.632812 288.171875 454.515625 262.648438 460.914062 252.074219 C 465.488281 244.492188 474.539062 237.300781 465.734375 229.132812 C 447.53125 212.242188 420.007812 200.535156 399.71875 183.398438 C 374.992188 162.511719 350.542969 138.21875 329.765625 113.488281 Z M 396.757812 157.5 L 399.375 156.75 C 399.480469 151.785156 402.546875 149.578125 404.992188 145.882812 C 399.726562 143.960938 399.824219 141.351562 397.648438 137.46875 C 394.648438 132.105469 394.117188 141.023438 393.148438 143.03125 C 392.183594 145.042969 388.816406 146.601562 389.210938 148.851562 C 392.851562 150.449219 396.308594 153.238281 396.75 157.5 Z M 420.757812 178.5 C 422.121094 179.460938 426.097656 172.515625 428.25 172.101562 L 424.125 163.515625 C 421.835938 165.789062 420.710938 169.191406 417 169.515625 C 418.988281 172.507812 420.449219 174.757812 420.757812 178.5 Z M 539.78125 450.15625 C 535.613281 451.109375 533.683594 456.261719 537.472656 458.902344 C 539.601562 460.386719 543.601562 460.453125 546.515625 461.859375 C 551.101562 464.0625 554.664062 469.125 558.800781 472.074219 C 562.703125 474.847656 574.867188 482.78125 577.867188 476.234375 C 580.957031 469.492188 568.386719 465.953125 564.074219 463.050781 C 556.800781 458.152344 550.066406 447.800781 539.789062 450.15625 Z M 516.53125 468.15625 C 513.480469 469.042969 513.234375 472.816406 514.3125 475.3125 C 516.238281 479.746094 533.265625 483.148438 538.265625 485.851562 C 542.414062 488.085938 553.835938 500.746094 557.902344 493.785156 C 560.332031 489.621094 555.996094 486.308594 553.09375 483.773438 C 546.203125 477.742188 535.589844 472.957031 526.882812 470.234375 C 523.785156 469.265625 519.71875 467.226562 516.523438 468.15625 Z M 492.554688 486.90625 C 486.195312 488.136719 487.492188 494.59375 492.039062 497.585938 C 499.90625 502.761719 513.929688 500.8125 523.125 507.75 C 526.46875 510.277344 531.863281 520.957031 536.632812 516.75 C 542.121094 511.921875 532.949219 502.628906 528.996094 499.621094 C 525.796875 497.183594 522.425781 495.570312 518.65625 494.210938 C 510.226562 491.183594 500.960938 490.171875 492.5625 486.898438 Z M 395.25 599.625 L 395.25 554.625 C 393.03125 552.734375 388.613281 555.074219 385.5 554.257812 C 391.335938 558.007812 390.367188 567.652344 390.007812 574.132812 C 389.699219 579.691406 389.527344 579.488281 389.992188 585.382812 C 390.457031 591.277344 388.363281 597.699219 390.113281 603.269531 C 390.847656 605.601562 397.648438 604.101562 399.75 604.5 C 398.730469 602.765625 395.722656 601.84375 395.25 599.632812 Z M 88.5 556.5 L 72 556.5 C 73.230469 558.816406 76.65625 558.140625 76.433594 561.421875 C 75.789062 573.285156 77.535156 586.453125 76.53125 598.164062 C 76.425781 599.386719 76.425781 601.15625 75.554688 602.070312 C 74.585938 603.089844 71.609375 602.941406 71.25 604.507812 L 108 604.507812 L 108.742188 591.007812 C 106.246094 593.273438 106.515625 596.796875 104.128906 599.511719 C 101.003906 603.082031 89.023438 605.128906 85.515625 602.609375 C 84.621094 601.972656 84 601.050781 83.578125 600.046875 L 83.289062 562.175781 C 83.445312 561.007812 83.933594 559.980469 84.71875 559.109375 C 86.003906 557.707031 87.945312 557.925781 88.492188 556.507812 Z M 155.25 604.5 L 167.25 604.5 L 162 598.875 L 162 564.75 C 166.378906 568.378906 177.585938 603.128906 179.625 603.773438 C 180.058594 603.90625 181.441406 604.003906 181.566406 603.308594 L 195.929688 566.804688 L 198 565.5 L 198 599.625 C 198 601.460938 193.921875 603.878906 192.007812 603.757812 L 192.007812 604.5 C 192.007812 604.5 210 604.5 210 604.5 C 209.46875 602.851562 206.558594 603.414062 205.433594 601.941406 C 204.816406 601.148438 204.839844 600.5625 204.71875 599.65625 C 203.984375 594.21875 203.828125 566.339844 204.773438 561.390625 C 205.199219 559.164062 207.683594 558.421875 208.507812 556.507812 L 197.609375 557.226562 L 183.375 593.257812 C 182.015625 593.445312 181.941406 592.238281 181.476562 591.40625 C 178.808594 586.566406 168.644531 557.925781 166.515625 556.867188 L 156.007812 556.507812 C 155.488281 558.832031 158.101562 557.902344 159.34375 559.539062 C 159.945312 560.332031 160.28125 561.921875 160.433594 562.949219 C 161.4375 569.878906 161.144531 587.851562 160.53125 595.15625 C 160.09375 600.261719 159.121094 601.394531 155.257812 604.507812 Z M 253.3125 563.0625 C 257.671875 558.691406 247.933594 552.691406 246.960938 559.972656 C 246.441406 563.863281 251.167969 565.222656 253.3125 563.0625 Z M 486.75 590.25 L 483.773438 588.351562 L 461.242188 556.882812 L 451.5 556.507812 C 453.878906 558.921875 455.398438 559.15625 455.933594 562.941406 C 456.914062 569.894531 456.667969 587.871094 456.03125 595.15625 C 455.871094 596.953125 455.4375 599.574219 454.410156 601.035156 C 452.976562 603.074219 450.390625 602.144531 450.75 604.5 L 463.5 604.5 C 462.515625 603.015625 457.5 601.230469 457.5 598.875 L 457.5 564 C 459.308594 565.109375 460.589844 567.308594 461.863281 569.011719 C 469.621094 579.359375 477.480469 593.585938 485.683594 602.941406 C 486.441406 603.800781 486.832031 604.785156 488.25 604.5 L 488.25 562.875 C 488.25 560.953125 492.96875 557.550781 492.75 557.257812 C 491.21875 556.449219 482.96875 555.75 483.015625 557.625 C 484.175781 558.609375 486.75 561.457031 486.75 562.875 Z M 556.605469 574.394531 L 556.132812 566.257812 L 553.171875 571.546875 L 546.75 576.375 L 550.507812 576.757812 C 551.414062 577.65625 549.515625 598.328125 550.828125 602.308594 C 552.59375 607.65625 565.640625 605.386719 564.375 599.265625 C 563.191406 602.730469 557.175781 604.824219 556.074219 600.824219 C 555.308594 598.074219 555.351562 580.058594 556.417969 577.808594 C 558.246094 573.9375 561.285156 577.6875 564 575.632812 L 556.597656 574.402344 Z M 535.492188 567.007812 C 533.746094 566.632812 534.292969 567.21875 533.8125 567.96875 C 531.226562 572.0625 530.707031 574.484375 525 575.625 L 529.5 576.757812 L 529.640625 602.488281 C 530.851562 606.511719 542.046875 606.21875 543.015625 601.140625 L 538.183594 602.976562 C 536.992188 602.789062 535.296875 602.25 534.878906 601.003906 C 534.496094 599.878906 534.375 578.730469 534.726562 577.253906 L 542.25 575.625 L 535.828125 574.550781 L 535.5 567.007812 Z M 685.582031 578.160156 L 688.925781 577.550781 C 690.796875 572.183594 685.648438 571.921875 681.757812 573.007812 C 681.226562 575.308594 683.28125 574.117188 684.390625 575.226562 C 685.109375 575.949219 685.175781 577.253906 685.589844 578.160156 Z M 139.492188 601.5 L 136.175781 602.984375 C 131.398438 601.589844 138.1875 582.21875 133.140625 577.484375 C 129.179688 573.78125 117.210938 572.121094 113.949219 577.078125 C 112.972656 578.566406 113.046875 582.136719 115.125 582.058594 C 120.074219 581.878906 117.21875 576.398438 120.53125 575.398438 C 127.84375 573.1875 131.414062 581.488281 129.765625 587.511719 C 129.578125 588.210938 128.316406 587.953125 128.273438 588.023438 C 127.988281 588.449219 129.375 589.085938 129.425781 589.835938 C 129.78125 594.628906 126.578125 601.164062 131.707031 604.417969 C 134.398438 606.128906 140.023438 605.542969 139.5 601.5 Z M 240.742188 602.25 C 237.703125 603.726562 236.625 603.277344 235.828125 600.046875 C 234.195312 593.332031 239.453125 582.921875 234.414062 577.460938 C 231.726562 574.550781 224.183594 573.308594 220.453125 574.085938 C 211.402344 575.96875 214.679688 585.300781 218.648438 581.273438 C 220.941406 578.941406 218.144531 573.808594 225.953125 575.421875 C 232.441406 576.765625 230.886719 582.464844 231.050781 587.585938 L 228.742188 588.375 C 232.605469 589.808594 230.308594 592.058594 230.21875 595.085938 C 230.160156 597.195312 229.972656 599.414062 230.664062 601.460938 C 232.914062 608.144531 242.59375 604.363281 240.742188 602.25 Z M 278.992188 575.25 C 275.535156 576.96875 273.03125 573.425781 269.699219 573.75 C 263.226562 574.386719 259.003906 581.617188 262.890625 587.226562 C 266.121094 591.898438 277.703125 591.058594 277.46875 598.042969 C 277.273438 603.757812 270.433594 606.53125 266.226562 602.648438 L 261.007812 595.5 L 261.007812 603.742188 C 264.023438 602.316406 265.949219 604.785156 268.941406 605.175781 C 276.15625 606.128906 282.039062 602.039062 281.273438 594.351562 C 280.378906 585.300781 268.125 586.972656 266.054688 582.5625 C 263.128906 576.324219 270.050781 572.84375 274.882812 576.726562 L 278.992188 581.984375 L 278.992188 575.242188 Z M 290.511719 577.761719 C 284.976562 582.886719 284.113281 592.453125 288.121094 598.753906 C 298.402344 614.925781 321.945312 598.777344 312.773438 581.601562 C 308.324219 573.269531 297.441406 571.34375 290.511719 577.761719 Z M 350.25 604.5 C 348.699219 602.445312 347.023438 602.566406 346.546875 599.578125 C 344.746094 588.382812 352.734375 568.320312 332.25 575.257812 L 338.234375 576.390625 C 342.328125 578.226562 341.746094 594.570312 341.175781 598.808594 C 340.734375 602.101562 339.601562 602.378906 337.5 604.507812 L 350.25 604.507812 Z M 386.25 575.257812 C 363.046875 565.574219 359.863281 610.140625 381.96875 605.085938 C 383.203125 604.800781 388.035156 602.070312 386.625 600.75 C 373.378906 609.636719 371.023438 590.917969 373.84375 581.96875 C 375.636719 576.292969 380.371094 573.324219 385.882812 576.734375 L 386.25 575.25 Z M 501 585.75 L 517.875 585.75 C 522.066406 585.75 519.34375 577.613281 515.511719 575.363281 C 507.984375 570.945312 499.050781 577.253906 496.363281 584.484375 C 491.851562 596.625 499.792969 608.015625 513.050781 604.921875 C 516.261719 604.171875 520.816406 600.667969 520.492188 596.992188 C 510.601562 609.171875 499.261719 598.769531 501 585.742188 Z M 580.320312 573.914062 C 567.464844 575.707031 562.363281 593.527344 572.226562 601.898438 C 582.824219 610.890625 596.976562 601.011719 596.265625 588.40625 C 595.824219 580.613281 588.382812 572.789062 580.320312 573.914062 Z M 656.242188 602.25 L 652.460938 602.691406 C 648.539062 595.914062 655.246094 584.183594 650.664062 578.210938 C 646.273438 572.496094 628.199219 570.984375 630.757812 582 C 638.4375 582.269531 632.21875 573.128906 642.226562 575.414062 C 646.800781 576.457031 649.371094 586.289062 645.015625 588.015625 C 648.351562 591.765625 644.558594 596.398438 645.914062 600.976562 C 647.09375 604.941406 654.984375 607.734375 656.257812 602.257812 Z M 679.28125 576.226562 C 677.167969 574.550781 671.664062 573.53125 668.953125 574.078125 C 657.367188 576.425781 656.796875 590.300781 667.5 594.382812 L 663.929688 601.261719 L 666.734375 606.75 C 658.589844 607.078125 656.347656 615.824219 663.039062 620.578125 C 668.960938 624.789062 682.558594 624.511719 687.300781 618.699219 C 691.957031 612.988281 690.863281 603.554688 682.816406 602.300781 C 677.699219 601.507812 664.003906 604.925781 668.542969 595.433594 C 676.867188 594.734375 684.613281 590.78125 682.335938 581.03125 C 682.148438 580.246094 679.824219 576.660156 679.273438 576.226562 Z M 702 575.25 C 701.527344 575.421875 700.359375 574.996094 699.5625 575.40625 C 687.699219 581.527344 687.050781 603.375 701.707031 605.160156 C 705.503906 605.625 709.71875 605.429688 712.761719 602.886719 C 713.714844 602.101562 718.402344 596.445312 714.765625 597 C 713.910156 601.53125 709.492188 602.714844 705.359375 602.265625 C 698.296875 601.5 695.886719 591.796875 696.75 585.742188 L 713.625 585.742188 C 714.832031 585.742188 715.566406 582.96875 715.476562 581.714844 C 715.09375 576.113281 708.34375 573.066406 703.417969 574.074219 C 702.082031 574.34375 702.082031 575.203125 702 575.234375 C 705.601562 573.929688 711.96875 576.960938 710.886719 581.460938 C 710.746094 582.046875 708.5625 584.234375 708.375 584.234375 L 697.5 584.234375 C 696.148438 582.097656 700.746094 575.691406 702 575.234375 Z M 253.5 574.5 L 243.757812 575.257812 C 243.855469 576.699219 245.859375 575.96875 246.808594 577.261719 C 249.074219 580.335938 248.984375 599.265625 246.78125 602.453125 C 246.171875 603.328125 244.679688 603.34375 244.507812 604.5 L 257.257812 604.5 C 256.746094 603.195312 253.507812 601.859375 253.507812 600.375 L 253.507812 574.5 Z M 318.75 604.5 L 331.5 604.5 C 330.929688 602.820312 328.433594 602.765625 327.890625 600.984375 C 326.765625 597.292969 328.085938 587.078125 327.78125 582.34375 C 327.613281 579.726562 326.566406 577.199219 327 574.5 L 318 575.265625 C 319.664062 577.335938 321.351562 576.800781 321.78125 580.09375 C 322.207031 583.386719 322.289062 597.398438 321.726562 600.367188 C 321.34375 602.378906 319.453125 602.851562 318.742188 604.507812 Z M 411 600.375 C 409.605469 593.863281 412.035156 582.691406 411 575.625 C 410.109375 573.382812 401.273438 574.828125 401.242188 575.625 C 402.824219 576.734375 404.566406 577.175781 404.976562 579.398438 C 406.792969 589.085938 398.953125 609.691406 416.871094 604.71875 C 418.199219 604.351562 418.824219 604.957031 418.492188 603.007812 C 416.070312 604.589844 411.578125 603.082031 411 600.382812 Z M 429.75 574.5 L 419.992188 575.625 C 427.492188 578.210938 423.683594 589.164062 423.71875 595.085938 C 423.734375 597.613281 425.113281 601.085938 424.605469 604.019531 L 425.59375 605.054688 L 433.5 604.492188 C 433.980469 602.203125 429.757812 602.953125 429.757812 600.375 L 429.757812 574.5 Z M 609.75 575.25 L 597 575.25 C 598.140625 576.796875 599.300781 577.085938 600.425781 578.949219 C 604.753906 586.101562 607.230469 597.292969 611.242188 604.941406 C 611.40625 606.585938 608.273438 615.414062 607.335938 616.335938 C 605.984375 617.664062 599.429688 617.144531 601.074219 622.539062 C 601.867188 623.609375 604.191406 623.511719 605.25 622.875 C 607.957031 621.226562 620.046875 586.394531 623.339844 580.214844 C 624.34375 578.339844 625.371094 576.996094 627 575.625 L 618.007812 575.265625 C 618.039062 576.570312 619.980469 576.1875 620.648438 577.492188 C 622.53125 581.160156 616.261719 593.675781 614.632812 597.742188 C 613.574219 597.710938 606.171875 579.675781 606.15625 578.488281 C 606.105469 575.820312 609.15625 576.890625 609.757812 575.257812 Z M 124.5 588.007812 C 108.21875 588.683594 108.59375 612.1875 126.742188 602.984375 L 126.742188 601.5 C 120.234375 604.378906 116.761719 599.617188 118.914062 593.289062 C 119.925781 590.308594 122.933594 590.25 124.5 588.007812 Z M 226.5 588.007812 C 209.300781 587.730469 210.066406 613.125 228 602.617188 C 226.164062 601.746094 224.039062 602.746094 222.023438 601.851562 C 218.542969 600.316406 219.375 594.007812 221.355469 591.472656 C 222.953125 589.433594 225.261719 589.785156 226.5 588 Z M 642.75 588.007812 C 625.648438 586.769531 625.148438 613.335938 643.5 602.625 C 640.507812 601.6875 637.371094 603.472656 635.828125 599.8125 C 634.191406 595.933594 635.664062 592.191406 639.03125 589.914062 C 640.402344 588.984375 642.40625 589.265625 642.75 588.015625 Z M 642.75 588.007812 " fill-opacity="1" fill-rule="nonzero"/><path fill="#000000" d="M 329.78125 113.476562 C 350.558594 138.203125 375.015625 162.503906 399.734375 183.382812 C 420.023438 200.519531 447.546875 212.21875 465.75 229.117188 C 474.554688 237.292969 465.511719 244.484375 460.925781 252.058594 C 454.539062 262.640625 437.648438 288.164062 437.925781 299.617188 L 473.542969 419.308594 C 476.421875 421.621094 479.949219 415.753906 485.226562 418.132812 C 489.441406 420.03125 487.484375 428.378906 492.367188 428.316406 C 495.871094 428.273438 509.414062 418.808594 513.726562 417.335938 L 516.929688 417.136719 L 539.199219 429.421875 C 542.8125 432.03125 542.871094 437.273438 539.941406 440.566406 C 519.511719 452.722656 501.171875 470.8125 480.988281 482.863281 C 478.566406 484.3125 472.597656 487.808594 470.0625 487.378906 C 468.238281 487.074219 461.871094 483.703125 459.734375 482.640625 C 453.800781 479.683594 446.578125 475.613281 442.050781 471.046875 C 440.894531 465.367188 458.332031 454.769531 462.742188 451.867188 L 463.546875 449.65625 C 463.042969 444.636719 445.117188 444.292969 451.164062 435.023438 C 453.328125 431.699219 459.136719 432.15625 457.320312 426.570312 L 429.039062 328.078125 C 423.601562 316.90625 413.671875 325.859375 408.898438 332.761719 C 397.492188 349.246094 391.679688 370.808594 384.808594 389.476562 C 383.03125 391.273438 381.441406 390.78125 379.546875 389.574219 C 373.640625 385.835938 364.679688 377.332031 359.242188 372.375 C 348.226562 362.324219 328.003906 337.433594 315.59375 332.773438 C 305.609375 329.03125 304.230469 336.164062 303.71875 344.578125 C 303.441406 349.148438 304.5 353.265625 304.53125 357.328125 C 304.726562 379.359375 304.980469 425.976562 313.363281 445.246094 C 319.3125 458.925781 330 460.621094 340.746094 468.113281 C 345.464844 471.40625 356.054688 480.488281 349.148438 486 C 338.316406 494.640625 301.671875 481.710938 288.03125 481.085938 C 283.132812 479.714844 279.628906 476.332031 278.21875 471.398438 C 275.828125 462.996094 279.382812 447.726562 279.789062 438.390625 C 281.503906 398.917969 279.683594 359.273438 278.191406 319.851562 C 277.925781 312.976562 281.070312 314.558594 274.515625 308.59375 C 263.121094 298.238281 244.972656 291.046875 233.648438 281.210938 C 227.046875 275.480469 229.304688 273.644531 233.394531 267.496094 C 249.128906 243.824219 266.976562 222.921875 281.386719 197.738281 C 296.992188 170.445312 306.390625 139.941406 324.089844 113.691406 C 325.15625 111.773438 328.289062 112.246094 329.796875 113.460938 Z M 363.75 280.492188 C 374.453125 278.25 385.507812 274.53125 395.265625 269.640625 C 400.191406 267.171875 416.152344 258.074219 418.402344 253.785156 C 421.5 247.867188 412.433594 242.078125 407.933594 238.949219 C 373.703125 215.128906 330.074219 215.910156 301.523438 247.90625 C 297.832031 252.039062 286.710938 266.992188 286.507812 271.972656 C 286.328125 276.480469 298.425781 279.1875 302.242188 280.140625 C 318.148438 284.113281 335.519531 285.203125 351.75 282.75 L 339.234375 277.648438 C 309.839844 258.1875 334.085938 209.40625 367.53125 228.351562 C 384.433594 237.929688 386.011719 258.578125 373.523438 272.648438 C 370.46875 276.082031 367.125 277.664062 363.757812 280.5 Z M 363.75 280.492188 " fill-opacity="1" fill-rule="nonzero"/><path fill="#000000" d="M 155.25 604.5 C 159.121094 601.394531 160.09375 600.253906 160.523438 595.148438 C 161.136719 587.84375 161.429688 569.871094 160.425781 562.941406 C 160.273438 561.921875 159.9375 560.324219 159.335938 559.53125 C 158.09375 557.886719 155.484375 558.824219 156 556.5 L 166.507812 556.859375 C 168.628906 557.925781 178.792969 586.566406 181.46875 591.398438 C 181.933594 592.238281 182.011719 593.4375 183.367188 593.25 L 197.601562 557.21875 L 208.5 556.5 C 207.675781 558.421875 205.191406 559.15625 204.765625 561.382812 C 203.820312 566.332031 203.976562 594.210938 204.710938 599.648438 C 204.832031 600.554688 204.816406 601.132812 205.425781 601.933594 C 206.550781 603.398438 209.460938 602.84375 209.992188 604.492188 L 191.992188 604.492188 L 191.992188 603.75 C 193.914062 603.871094 197.992188 601.453125 197.992188 599.617188 L 197.992188 565.492188 L 195.921875 566.796875 L 181.558594 603.300781 C 181.441406 603.996094 180.050781 603.898438 179.617188 603.765625 C 177.578125 603.121094 166.371094 568.378906 161.992188 564.742188 L 161.992188 598.867188 L 167.242188 604.492188 L 155.242188 604.492188 Z M 155.25 604.5 " fill-opacity="1" fill-rule="nonzero"/><path fill="#000000" d="M 492.554688 486.90625 C 500.953125 490.175781 510.226562 491.191406 518.648438 494.21875 C 522.421875 495.578125 525.789062 497.191406 528.988281 499.628906 C 532.941406 502.636719 542.113281 511.925781 536.625 516.757812 C 531.847656 520.957031 526.460938 510.277344 523.117188 507.757812 C 513.921875 500.820312 499.898438 502.769531 492.03125 497.59375 C 487.484375 494.609375 486.1875 488.144531 492.546875 486.914062 Z M 492.554688 486.90625 " fill-opacity="1" fill-rule="nonzero"/><path fill="#000000" d="M 486.75 590.25 L 486.75 562.875 C 486.75 561.457031 484.175781 558.609375 483.015625 557.625 C 482.96875 555.75 491.210938 556.449219 492.75 557.257812 C 492.96875 557.550781 488.25 560.953125 488.25 562.875 L 488.25 604.5 C 486.832031 604.785156 486.441406 603.800781 485.683594 602.941406 C 477.480469 593.585938 469.621094 579.359375 461.863281 569.011719 C 460.589844 567.308594 459.316406 565.109375 457.5 564 L 457.5 598.875 C 457.5 601.230469 462.515625 603.015625 463.5 604.5 L 450.75 604.5 C 450.398438 602.136719 452.976562 603.074219 454.410156 601.035156 C 455.4375 599.574219 455.871094 596.953125 456.03125 595.15625 C 456.667969 587.871094 456.914062 569.894531 455.933594 562.941406 C 455.398438 559.15625 453.886719 558.921875 451.5 556.507812 L 461.242188 556.882812 L 483.773438 588.351562 Z M 486.75 590.25 " fill-opacity="1" fill-rule="nonzero"/><path fill="#000000" d="M 516.53125 468.15625 C 519.726562 467.226562 523.792969 469.265625 526.890625 470.234375 C 535.597656 472.957031 546.21875 477.742188 553.101562 483.773438 C 556.003906 486.308594 560.332031 489.621094 557.910156 493.785156 C 553.84375 500.753906 542.421875 488.09375 538.273438 485.851562 C 533.273438 483.148438 516.246094 479.746094 514.320312 475.3125 C 513.234375 472.816406 513.488281 469.042969 516.539062 468.15625 Z M 516.53125 468.15625 " fill-opacity="1" fill-rule="nonzero"/><path fill="#000000" d="M 539.78125 450.15625 C 550.066406 447.808594 556.800781 458.160156 564.066406 463.050781 C 568.378906 465.953125 580.949219 469.492188 577.859375 476.234375 C 574.859375 482.78125 562.695312 474.847656 558.796875 472.074219 C 554.65625 469.125 551.09375 464.0625 546.511719 461.859375 C 543.59375 460.453125 539.59375 460.386719 537.464844 458.902344 C 533.683594 456.261719 535.605469 451.109375 539.773438 450.15625 Z M 539.78125 450.15625 " fill-opacity="1" fill-rule="nonzero"/><path fill="#000000" d="M 679.28125 576.226562 C 679.824219 576.652344 682.15625 580.246094 682.34375 581.03125 C 684.621094 590.773438 676.882812 594.726562 668.550781 595.433594 C 664.019531 604.933594 677.707031 601.515625 682.824219 602.300781 C 690.871094 603.546875 691.964844 612.988281 687.308594 618.699219 C 682.558594 624.515625 668.960938 624.789062 663.046875 620.578125 C 656.355469 615.824219 658.597656 607.078125 666.742188 606.75 L 663.9375 601.261719 L 667.507812 594.382812 C 656.796875 590.300781 657.367188 576.425781 668.960938 574.078125 C 671.664062 573.53125 677.175781 574.550781 679.289062 576.226562 Z M 669.539062 575.390625 C 663.007812 577.351562 663.886719 595.15625 672.210938 593.878906 C 679.65625 592.738281 679.574219 572.378906 669.539062 575.390625 Z M 668.054688 606.863281 C 665.378906 607.703125 663.15625 610.363281 663.046875 613.191406 C 662.585938 624.449219 684.523438 625.867188 686.101562 615.179688 C 687.539062 605.445312 674.113281 608.886719 668.046875 606.871094 Z M 668.054688 606.863281 " fill-opacity="1" fill-rule="nonzero"/><path fill="#000000" d="M 88.5 556.5 C 87.953125 557.917969 86.011719 557.699219 84.726562 559.101562 C 83.941406 559.964844 83.453125 561 83.296875 562.171875 L 83.585938 600.039062 C 84 601.042969 84.628906 601.964844 85.523438 602.601562 C 89.03125 605.121094 101.011719 603.066406 104.136719 599.503906 C 106.523438 596.78125 106.246094 593.265625 108.75 591 L 108.007812 604.5 L 71.257812 604.5 C 71.617188 602.933594 74.59375 603.082031 75.5625 602.0625 C 76.433594 601.148438 76.433594 599.378906 76.539062 598.15625 C 77.542969 586.453125 75.789062 573.285156 76.441406 561.414062 C 76.671875 558.136719 73.238281 558.808594 72.007812 556.492188 L 88.507812 556.492188 Z M 88.5 556.5 " fill-opacity="1" fill-rule="nonzero"/><path fill="#000000" d="M 290.511719 577.761719 C 297.449219 571.34375 308.324219 573.261719 312.773438 581.601562 C 321.945312 598.777344 298.402344 614.933594 288.121094 598.753906 C 284.113281 592.453125 284.976562 582.886719 290.511719 577.761719 Z M 297.5625 575.4375 C 285.914062 578.511719 291.960938 614.09375 305.191406 602.574219 C 311.976562 596.664062 310.003906 572.152344 297.5625 575.4375 Z M 297.5625 575.4375 " fill-opacity="1" fill-rule="nonzero"/><path fill="#000000" d="M 580.320312 573.914062 C 588.375 572.789062 595.824219 580.613281 596.265625 588.40625 C 596.984375 601.011719 582.832031 610.898438 572.226562 601.898438 C 562.363281 593.527344 567.472656 575.699219 580.320312 573.914062 Z M 578.773438 575.40625 C 570.757812 577.808594 571.035156 600.398438 579.1875 603.929688 C 593.429688 610.109375 595.085938 570.515625 578.773438 575.40625 Z M 578.773438 575.40625 " fill-opacity="1" fill-rule="nonzero"/><path fill="#000000" d="M 395.25 599.625 C 395.722656 601.835938 398.730469 602.761719 399.75 604.492188 C 397.640625 604.09375 390.839844 605.59375 390.113281 603.261719 C 388.363281 597.691406 390.441406 591.121094 389.992188 585.375 C 389.542969 579.628906 389.699219 579.675781 390.007812 574.125 C 390.367188 567.652344 391.34375 558.007812 385.5 554.25 C 388.613281 555.066406 393.03125 552.726562 395.25 554.617188 Z M 395.25 599.625 " fill-opacity="1" fill-rule="nonzero"/><path fill="#000000" d="M 430.484375 106.507812 C 431.421875 108.871094 431.675781 112.117188 432.847656 114.269531 C 434.796875 117.847656 439.222656 118.460938 440.976562 121.875 C 436.273438 124.09375 434.046875 123.847656 431.445312 128.820312 C 430.558594 130.515625 430.207031 135.636719 427.207031 134.910156 C 425.519531 134.496094 424.933594 128.386719 423.316406 126.050781 C 421.042969 122.789062 418.769531 123.140625 416.699219 121.558594 C 414.023438 119.511719 419.828125 117.945312 421.125 117.007812 C 425.699219 113.738281 425.265625 107.121094 430.476562 106.507812 Z M 430.484375 106.507812 " fill-opacity="1" fill-rule="nonzero"/><path fill="#000000" d="M 702 575.25 C 702.082031 575.21875 702.089844 574.359375 703.417969 574.085938 C 708.34375 573.074219 715.09375 576.128906 715.476562 581.730469 C 715.558594 582.984375 714.832031 585.757812 713.625 585.757812 L 696.75 585.757812 C 695.886719 591.800781 698.296875 601.515625 705.359375 602.28125 C 709.492188 602.730469 713.910156 601.546875 714.765625 597.015625 C 718.402344 596.453125 713.714844 602.109375 712.761719 602.902344 C 709.710938 605.445312 705.503906 605.640625 701.707031 605.175781 C 687.058594 603.390625 687.699219 581.542969 699.5625 575.421875 C 700.359375 575.011719 701.519531 575.4375 702 575.265625 C 700.746094 575.722656 696.148438 582.128906 697.5 584.265625 L 708.375 584.265625 C 708.5625 584.265625 710.746094 582.066406 710.886719 581.488281 C 711.96875 576.988281 705.601562 573.960938 702 575.265625 Z M 702 575.25 " fill-opacity="1" fill-rule="nonzero"/><path fill="#000000" d="M 501 585.75 C 499.261719 598.777344 510.601562 609.179688 520.492188 597 C 520.816406 600.675781 516.261719 604.175781 513.050781 604.925781 C 499.785156 608.015625 491.851562 596.632812 496.363281 584.488281 C 499.058594 577.253906 507.984375 570.945312 515.511719 575.371094 C 519.351562 577.621094 522.066406 585.757812 517.875 585.757812 L 501 585.757812 Z M 501.75 584.25 L 512.625 584.25 C 516.863281 584.25 516.140625 574.890625 508.890625 575.199219 C 504.683594 575.378906 501.324219 580.109375 501.75 584.25 Z M 501.75 584.25 " fill-opacity="1" fill-rule="nonzero"/><path fill="#000000" d="M 609.75 575.25 C 609.140625 576.886719 606.097656 575.8125 606.148438 578.484375 C 606.171875 579.667969 613.574219 597.703125 614.625 597.734375 C 616.261719 593.671875 622.523438 581.152344 620.640625 577.484375 C 619.972656 576.179688 618.03125 576.570312 618 575.257812 L 626.992188 575.617188 C 625.363281 576.988281 624.335938 578.332031 623.332031 580.207031 C 620.039062 586.386719 607.949219 621.21875 605.242188 622.867188 C 604.183594 623.503906 601.859375 623.609375 601.066406 622.53125 C 599.421875 617.136719 605.976562 617.65625 607.328125 616.328125 C 608.257812 615.414062 611.398438 606.578125 611.234375 604.933594 C 607.222656 597.285156 604.746094 586.09375 600.421875 578.941406 C 599.296875 577.078125 598.132812 576.789062 596.992188 575.242188 L 609.742188 575.242188 Z M 609.75 575.25 " fill-opacity="1" fill-rule="nonzero"/><path fill="#000000" d="M 278.992188 575.25 L 278.992188 581.992188 C 278.992188 581.992188 274.882812 576.734375 274.882812 576.734375 C 270.050781 572.851562 263.121094 576.328125 266.054688 582.570312 C 268.125 586.980469 280.378906 585.308594 281.273438 594.359375 C 282.03125 602.046875 276.148438 606.136719 268.941406 605.183594 C 265.949219 604.785156 264.023438 602.324219 261.007812 603.75 L 261.007812 595.507812 C 261.007812 595.507812 266.226562 602.65625 266.226562 602.65625 C 270.441406 606.539062 277.28125 603.765625 277.46875 598.050781 C 277.710938 591.066406 266.121094 591.90625 262.890625 587.234375 C 259.011719 581.625 263.226562 574.386719 269.699219 573.757812 C 273.03125 573.433594 275.535156 576.96875 278.992188 575.257812 Z M 278.992188 575.25 " fill-opacity="1" fill-rule="nonzero"/><path fill="#000000" d="M 556.605469 574.394531 L 564.007812 575.625 C 561.300781 577.679688 558.253906 573.9375 556.425781 577.800781 C 555.359375 580.050781 555.316406 598.058594 556.078125 600.816406 C 557.183594 604.808594 563.191406 602.722656 564.382812 599.257812 C 565.640625 605.378906 552.601562 607.648438 550.835938 602.300781 C 549.523438 598.320312 551.414062 577.648438 550.515625 576.75 L 546.757812 576.367188 L 553.175781 571.539062 L 556.140625 566.25 L 556.613281 574.386719 Z M 556.605469 574.394531 " fill-opacity="1" fill-rule="nonzero"/><path fill="#000000" d="M 535.492188 567.007812 L 535.824219 574.550781 L 542.242188 575.625 L 534.71875 577.253906 C 534.375 578.730469 534.488281 599.878906 534.871094 601.003906 C 535.289062 602.25 536.984375 602.789062 538.175781 602.976562 L 543.007812 601.140625 C 542.039062 606.21875 530.851562 606.511719 529.636719 602.488281 L 529.492188 576.757812 L 524.992188 575.625 C 530.699219 574.484375 531.21875 572.0625 533.804688 567.96875 C 534.277344 567.21875 533.738281 566.632812 535.484375 567.007812 Z M 535.492188 567.007812 " fill-opacity="1" fill-rule="nonzero"/><path fill="#000000" d="M 139.492188 601.5 C 140.015625 605.542969 134.390625 606.128906 131.699219 604.417969 C 126.570312 601.15625 129.773438 594.621094 129.421875 589.835938 C 129.367188 589.085938 127.980469 588.449219 128.265625 588.023438 C 128.308594 587.953125 129.570312 588.210938 129.757812 587.511719 C 131.40625 581.484375 127.835938 573.1875 120.523438 575.398438 C 117.210938 576.40625 120.066406 581.886719 115.117188 582.058594 C 113.039062 582.136719 112.964844 578.566406 113.941406 577.078125 C 117.203125 572.113281 129.179688 573.78125 133.132812 577.484375 C 138.179688 582.210938 131.390625 601.589844 136.171875 602.984375 L 139.484375 601.5 Z M 139.492188 601.5 " fill-opacity="1" fill-rule="nonzero"/><path fill="#000000" d="M 240.742188 602.25 C 242.59375 604.363281 232.90625 608.144531 230.664062 601.460938 C 229.972656 599.414062 230.160156 597.195312 230.21875 595.085938 C 230.308594 592.058594 232.597656 589.808594 228.742188 588.375 L 231.050781 587.585938 C 230.886719 582.464844 232.441406 576.765625 225.953125 575.421875 C 218.144531 573.808594 220.941406 578.941406 218.648438 581.273438 C 214.679688 585.292969 211.402344 575.96875 220.453125 574.085938 C 224.183594 573.316406 231.726562 574.558594 234.414062 577.460938 C 239.453125 582.921875 234.195312 593.332031 235.828125 600.046875 C 236.617188 603.277344 237.699219 603.71875 240.742188 602.25 Z M 240.742188 602.25 " fill-opacity="1" fill-rule="nonzero"/><path fill="#000000" d="M 656.242188 602.25 C 654.976562 607.726562 647.085938 604.941406 645.898438 600.96875 C 644.542969 596.390625 648.34375 591.757812 645 588.007812 C 649.359375 586.28125 646.785156 576.449219 642.210938 575.40625 C 632.203125 573.121094 638.421875 582.269531 630.742188 581.992188 C 628.183594 570.976562 646.261719 572.488281 650.648438 578.203125 C 655.230469 584.175781 648.523438 595.90625 652.449219 602.683594 L 656.226562 602.242188 Z M 656.242188 602.25 " fill-opacity="1" fill-rule="nonzero"/><path fill="#000000" d="M 411 600.375 C 411.578125 603.074219 416.070312 604.582031 418.492188 603 C 418.824219 604.957031 418.199219 604.34375 416.871094 604.710938 C 398.953125 609.683594 406.792969 589.078125 404.976562 579.390625 C 404.566406 577.175781 402.824219 576.734375 401.242188 575.617188 C 401.273438 574.824219 410.109375 573.375 411 575.617188 C 412.035156 582.683594 409.605469 593.859375 411 600.367188 Z M 411 600.375 " fill-opacity="1" fill-rule="nonzero"/><path fill="#000000" d="M 318.75 604.5 C 319.460938 602.84375 321.351562 602.371094 321.734375 600.359375 C 322.296875 597.390625 322.214844 583.335938 321.789062 580.085938 C 321.359375 576.839844 319.664062 577.328125 318.007812 575.257812 L 327.007812 574.492188 C 326.566406 577.199219 327.613281 579.726562 327.789062 582.335938 C 328.09375 587.078125 326.773438 597.292969 327.898438 600.976562 C 328.441406 602.761719 330.9375 602.8125 331.507812 604.492188 L 318.757812 604.492188 Z M 318.75 604.5 " fill-opacity="1" fill-rule="nonzero"/><path fill="#000000" d="M 386.25 575.257812 L 385.882812 576.742188 C 380.378906 573.328125 375.644531 576.300781 373.84375 581.976562 C 371.015625 590.925781 373.378906 609.636719 386.625 600.757812 C 388.027344 602.078125 383.203125 604.808594 381.96875 605.09375 C 359.863281 610.148438 363.046875 565.582031 386.25 575.265625 Z M 386.25 575.257812 " fill-opacity="1" fill-rule="nonzero"/><path fill="#000000" d="M 350.25 604.5 L 337.5 604.5 C 339.601562 602.371094 340.734375 602.101562 341.175781 598.800781 C 341.746094 594.5625 342.328125 578.21875 338.234375 576.382812 L 332.25 575.25 C 352.726562 568.304688 344.746094 588.367188 346.546875 599.574219 C 347.023438 602.558594 348.699219 602.445312 350.25 604.492188 Z M 350.25 604.5 " fill-opacity="1" fill-rule="nonzero"/><path fill="#000000" d="M 253.5 574.5 L 253.5 600.375 C 253.5 601.859375 256.738281 603.195312 257.25 604.5 L 244.5 604.5 C 244.671875 603.335938 246.164062 603.324219 246.773438 602.453125 C 248.976562 599.273438 249.074219 580.34375 246.800781 577.261719 C 245.851562 575.96875 243.847656 576.699219 243.75 575.257812 L 253.492188 574.5 Z M 253.5 574.5 " fill-opacity="1" fill-rule="nonzero"/><path fill="#000000" d="M 429.75 574.5 L 429.75 600.375 C 429.75 602.960938 433.980469 602.210938 433.492188 604.492188 L 425.585938 605.054688 L 424.597656 604.019531 C 425.113281 601.085938 423.726562 597.613281 423.710938 595.085938 C 423.675781 589.164062 427.484375 578.203125 419.984375 575.625 L 429.742188 574.5 Z M 429.75 574.5 " fill-opacity="1" fill-rule="nonzero"/><path fill="#000000" d="M 396.757812 157.5 C 396.316406 153.238281 392.863281 150.449219 389.21875 148.851562 C 388.824219 146.601562 392.144531 145.132812 393.15625 143.03125 C 394.171875 140.933594 394.648438 132.097656 397.65625 137.46875 C 399.832031 141.351562 399.734375 143.960938 405 145.882812 C 402.554688 149.578125 399.480469 151.785156 399.382812 156.75 L 396.765625 157.5 Z M 396.757812 157.5 " fill-opacity="1" fill-rule="nonzero"/><path fill="#000000" d="M 226.5 588.007812 C 225.269531 589.785156 222.953125 589.433594 221.355469 591.480469 C 219.367188 594.015625 218.542969 600.324219 222.023438 601.859375 C 224.039062 602.753906 226.171875 601.753906 228 602.625 C 210.066406 613.132812 209.300781 587.738281 226.5 588.015625 Z M 226.5 588.007812 " fill-opacity="1" fill-rule="nonzero"/><path fill="#000000" d="M 124.5 588.007812 C 122.933594 590.25 119.925781 590.308594 118.914062 593.289062 C 116.761719 599.617188 120.234375 604.378906 126.742188 601.5 L 126.742188 602.984375 C 108.59375 612.1875 108.21875 588.675781 124.5 588.007812 Z M 124.5 588.007812 " fill-opacity="1" fill-rule="nonzero"/><path fill="#000000" d="M 642.75 588.007812 C 642.414062 589.261719 640.402344 588.976562 639.03125 589.90625 C 635.65625 592.183594 634.183594 595.933594 635.828125 599.804688 C 637.378906 603.464844 640.515625 601.679688 643.5 602.617188 C 625.148438 613.335938 625.648438 586.761719 642.75 588 Z M 642.75 588.007812 " fill-opacity="1" fill-rule="nonzero"/><path fill="#000000" d="M 420.757812 178.5 C 420.449219 174.757812 418.988281 172.507812 417 169.515625 C 420.710938 169.191406 421.835938 165.789062 424.125 163.515625 L 428.25 172.101562 C 426.089844 172.507812 422.121094 179.453125 420.757812 178.5 Z M 420.757812 178.5 " fill-opacity="1" fill-rule="nonzero"/><path fill="#000000" d="M 253.3125 563.0625 C 251.167969 565.214844 246.441406 563.859375 246.960938 559.972656 C 247.933594 552.691406 257.671875 558.691406 253.3125 563.0625 Z M 253.3125 563.0625 " fill-opacity="1" fill-rule="nonzero"/><path fill="#000000" d="M 685.582031 578.160156 C 685.171875 577.253906 685.101562 575.949219 684.382812 575.226562 C 683.273438 574.117188 681.21875 575.308594 681.75 573.007812 C 685.640625 571.914062 690.789062 572.175781 688.921875 577.550781 L 685.574219 578.160156 Z M 685.582031 578.160156 " fill-opacity="1" fill-rule="nonzero"/><path fill="#ffffff" d="M 363.75 280.492188 C 367.117188 277.65625 370.460938 276.082031 373.515625 272.640625 C 386.003906 258.570312 384.425781 237.921875 367.523438 228.34375 C 334.078125 209.398438 309.839844 258.179688 339.226562 277.640625 L 351.742188 282.742188 C 335.511719 285.195312 318.140625 284.113281 302.234375 280.132812 C 298.425781 279.179688 286.320312 276.472656 286.5 271.964844 C 286.703125 266.984375 297.824219 252.03125 301.515625 247.898438 C 330.066406 215.902344 373.695312 215.128906 407.925781 238.941406 C 412.425781 242.070312 421.492188 247.859375 418.394531 253.777344 C 416.144531 258.074219 400.183594 267.164062 395.257812 269.632812 C 385.492188 274.523438 374.445312 278.242188 363.742188 280.484375 Z M 363.75 280.492188 " fill-opacity="1" fill-rule="nonzero"/><path fill="#ffffff" d="M 668.054688 606.863281 C 674.113281 608.886719 687.546875 605.4375 686.109375 615.171875 C 684.523438 625.867188 662.59375 624.441406 663.050781 613.183594 C 663.164062 610.363281 665.378906 607.703125 668.0625 606.855469 Z M 668.054688 606.863281 " fill-opacity="1" fill-rule="nonzero"/><path fill="#ffffff" d="M 669.539062 575.390625 C 679.574219 572.386719 679.65625 592.738281 672.210938 593.878906 C 663.886719 595.15625 663.007812 577.351562 669.539062 575.390625 Z M 669.539062 575.390625 " fill-opacity="1" fill-rule="nonzero"/><path fill="#ffffff" d="M 297.5625 575.4375 C 310.011719 572.152344 311.976562 596.664062 305.191406 602.574219 C 291.960938 614.09375 285.914062 578.511719 297.5625 575.4375 Z M 297.5625 575.4375 " fill-opacity="1" fill-rule="nonzero"/><path fill="#ffffff" d="M 578.773438 575.40625 C 595.09375 570.515625 593.4375 610.117188 579.1875 603.929688 C 571.035156 600.390625 570.757812 577.808594 578.773438 575.40625 Z M 578.773438 575.40625 " fill-opacity="1" fill-rule="nonzero"/><path fill="#ffffff" d="M 501.75 584.25 C 501.324219 580.109375 504.683594 575.378906 508.890625 575.199219 C 516.140625 574.890625 516.855469 584.25 512.625 584.25 Z M 501.75 584.25 " fill-opacity="1" fill-rule="nonzero"/></svg>