<?xml version="1.0" encoding="UTF-8"?>
<svg id="Layer_2" data-name="Layer 2" xmlns="http://www.w3.org/2000/svg" viewBox="0 0 1743.61 1743.61">
  <defs>
    <style>
      .cls-1 {
        fill: #2a2b27;
      }

      .cls-2 {
        fill: #7b7b7b;
      }

      .cls-3 {
        fill: #fdfdfd;
      }
    </style>
  </defs>
  <g id="_3g4eWR" data-name="3g4eWR">
    <g>
      <path class="cls-1" d="M1333.25,1225.98H410.36V367.79h920.34c.18,0,2.55,2.37,2.55,2.55v855.63ZM1311.12,388.23H430.8v817.32h880.32V388.23Z"/>
      <path class="cls-3" d="M1311.12,388.23v817.32H430.8V388.23h880.32ZM994.4,890.54l.07-293.8c-3.05-87.24-71.22-128.05-153.34-110.63-26.73,5.67-50.47,20.7-65.54,43.41-39.7-63.05-153.99-62.21-197.37-4.92-15.98,21.11-20.6,46.33-23.12,72.23l-.02,293.71h126v-274.99c0-8.37,19.08-16.01,27.3-6.87,1.11,1.23,5.05,9.35,5.05,10.27v271.59h122.6v-273.29c0-10.99,19.04-17.37,27.33-8.6,1.36,1.43,5.02,10.6,5.02,12.01v269.89h126ZM1185.11,486.99h-120.9v259.67c0,1.12-3.06,11.34-3.85,13.18-6.11,14.31-23.82,13.74-37.02,13.21v119.19c49.04,9.45,105.79-3.5,135.93-45.41,17.99-25.01,22.76-52.98,25.9-83.08l-.07-276.77ZM1164.68,960.35v146.44c0,.72,13.16,1.88,14.22,1.53,6.08-1.99,1.01-17.45.97-22.79-.15-17.2,1.92-37.02,1.91-54.45,0-23.71-2.2-47.36-.08-70.72h-17.03ZM665.78,1013.13c-1.53-57.52-82.5-65.63-102.99-15.28-8.9,21.88-8.44,60.73,1.06,82.31,21.18,48.09,99.05,37.68,101.95-16.76l-18.68-.79c1.96,38.27-52.45,46.08-66.52,14.44-8.35-18.78-8.23-66.27,3.11-83.81,17.55-27.15,67.14-14.88,63.33,19.93l18.74-.02ZM1121.62,965.82c-8.81,2.61-7.34,15.8-.02,18.05,17.4,5.35,20.8-24.21.02-18.05ZM883.73,1108.49v-80.88c0-2.64-4.79-12.68-6.82-15.31-12.76-16.52-45.04-11.98-57.03,4.21-4.36-1.82-1.74-11.06-2.55-11.9-.58-.6-12.65.45-15.33.01v103.87c4.4-.63,15.18,2.12,16.79-2.79,1.97-21.39-1.78-45.18.16-66.25,2.06-22.38,38.63-33.88,47.02-9.4l2.43,78.45h15.33ZM719.82,1003.33c-51.43,8.11-51.26,117.01,21.28,106.42,54.45-7.95,55.41-118.51-21.28-106.42ZM987.59,1033.56c-1.35-43.78-85.98-41.25-78.22,4.18,4.52,26.45,55.91,21.5,60.85,37.9,6.77,22.44-28.89,26.57-42.09,14.84-8.69-7.72-1.13-18.34-22.27-14.34-.62,46.78,89.3,46.11,81.62-2.45-4.34-27.46-56.53-23.53-60.83-37.92-6.74-22.54,30.65-26.93,41.23-10.57,1.37,2.13,2.23,7.71,2.92,8.15,2.19,1.44,13.12-.55,16.8.21ZM1023.35,1060.81h68.96c4.79,0,1.44-23.44.42-27.67-5.66-23.47-25.17-32.64-48.19-30.32-44.16,4.45-51.43,79.65-15.64,100.96,21.09,12.56,50.87,7.77,64.06-13.43.71-2.18-7.87-7.47-9.16-7.48-3.26-.04-10.73,11.06-19.49,12.93-24.27,5.19-40.57-11.58-40.96-35ZM1134.03,1004.62h-17.03v101.31c0,3.74,13.83,2.43,17.03,2.55v-103.87Z"/>
      <path class="cls-1" d="M994.4,890.54h-126v-269.89c0-1.41-3.66-10.57-5.02-12.01-8.29-8.77-27.33-2.39-27.33,8.6v273.29h-122.6v-271.59c0-.92-3.95-9.04-5.05-10.27-8.21-9.14-27.3-1.5-27.3,6.87v274.99h-126l.02-293.71c2.53-25.9,7.14-51.12,23.12-72.23,43.37-57.29,157.66-58.13,197.37,4.92,15.06-22.71,38.8-37.73,65.54-43.41,82.11-17.42,150.29,23.39,153.34,110.63l-.07,293.8Z"/>
      <path class="cls-1" d="M1185.11,486.99l.07,276.77c-3.14,30.09-7.91,58.07-25.9,83.08-30.14,41.91-86.9,54.86-135.93,45.41v-119.19c13.2.53,30.91,1.1,37.02-13.21.79-1.85,3.85-12.06,3.85-13.18v-259.67h120.9Z"/>
      <path class="cls-2" d="M665.78,1013.13l-18.74.02c3.81-34.81-45.78-47.08-63.33-19.93-11.34,17.54-11.46,65.03-3.11,83.81,14.07,31.65,68.48,23.83,66.52-14.44l18.68.79c-2.9,54.44-80.77,64.85-101.95,16.76-9.5-21.58-9.96-60.43-1.06-82.31,20.48-50.34,101.45-42.24,102.99,15.28Z"/>
      <path class="cls-2" d="M1023.35,1060.81c.39,23.42,16.7,40.19,40.96,35,8.76-1.87,16.23-12.97,19.49-12.93,1.29.01,9.87,5.3,9.16,7.48-13.19,21.19-42.96,25.99-64.06,13.43-35.79-21.31-28.51-96.51,15.64-100.96,23.02-2.32,42.53,6.85,48.19,30.32,1.02,4.23,4.37,27.67-.42,27.67h-68.96ZM1025.05,1047.19h50.23c5.67,0,.33-16.96-1.77-20.37-14.76-24-53.2-6.5-48.46,20.37Z"/>
      <path class="cls-2" d="M719.82,1003.33c76.69-12.1,75.73,98.47,21.28,106.42-72.54,10.59-72.71-98.31-21.28-106.42ZM723.21,1016.93c-11.3,2.33-20.45,16.81-21.68,27.7-1.99,17.65-.19,43.56,19.68,50.15,52.59,17.43,57.86-89.35,2-77.84Z"/>
      <path class="cls-2" d="M883.73,1108.49h-15.33s-2.43-78.45-2.43-78.45c-8.39-24.48-44.97-12.98-47.02,9.4-1.94,21.07,1.81,44.86-.16,66.25-1.61,4.92-12.39,2.16-16.79,2.79v-103.87c2.69.44,14.75-.61,15.33-.01.8.84-1.81,10.08,2.55,11.9,11.99-16.19,44.27-20.73,57.03-4.21,2.04,2.64,6.82,12.67,6.82,15.31v80.88Z"/>
      <path class="cls-2" d="M987.59,1033.56c-3.68-.76-14.61,1.23-16.8-.21-.68-.45-1.54-6.03-2.92-8.15-10.58-16.36-47.96-11.96-41.23,10.57,4.3,14.39,56.49,10.46,60.83,37.92,7.68,48.56-82.25,49.23-81.62,2.45,21.14-4,13.58,6.62,22.27,14.34,13.2,11.73,48.85,7.6,42.09-14.84-4.94-16.4-56.33-11.45-60.85-37.9-7.76-45.43,76.88-47.97,78.22-4.18Z"/>
      <path class="cls-2" d="M1164.68,960.35h17.03c-2.13,23.37.07,47.02.08,70.73,0,17.43-2.06,37.25-1.91,54.45.05,5.34,5.11,20.8-.97,22.79-1.06.35-14.22-.82-14.22-1.53v-146.44Z"/>
      <path class="cls-2" d="M1134.03,1004.62v103.87c-3.19-.12-17.03,1.18-17.03-2.55v-101.31h17.03Z"/>
      <path class="cls-2" d="M1121.62,965.82c20.78-6.16,17.38,23.4-.02,18.05-7.32-2.25-8.79-15.44.02-18.05Z"/>
      <path class="cls-3" d="M1025.05,1047.19c-4.74-26.87,33.7-44.36,48.46-20.37,2.1,3.41,7.44,20.37,1.77,20.37h-50.23Z"/>
    </g>
  </g>
</svg>