<?xml version="1.0" encoding="UTF-8"?>
<svg xmlns="http://www.w3.org/2000/svg" xmlns:xlink="http://www.w3.org/1999/xlink" viewBox="0 0 1743.61 1743.61">
  <defs>
    <style>
      .cls-1 {
        fill: url(#New_Gradient_Swatch_1-2);
      }

      .cls-2 {
        fill: url(#New_Gradient_Swatch_1-6);
      }

      .cls-3 {
        fill: url(#New_Gradient_Swatch_1-3);
      }

      .cls-4 {
        fill: url(#New_Gradient_Swatch_1-9);
      }

      .cls-5 {
        fill: url(#New_Gradient_Swatch_1-8);
      }

      .cls-6 {
        fill: url(#New_Gradient_Swatch_1-5);
      }

      .cls-7 {
        fill: url(#New_Gradient_Swatch_1-4);
      }

      .cls-8 {
        fill: url(#New_Gradient_Swatch_1-7);
      }

      .cls-9 {
        fill: url(#New_Gradient_Swatch_1);
      }

      .cls-10 {
        fill: url(#New_Gradient_Swatch_1-10);
      }

      .cls-11 {
        fill: url(#New_Gradient_Swatch_1-11);
      }
    </style>
    <linearGradient id="New_Gradient_Swatch_1" data-name="New Gradient Swatch 1" x1="574.98" y1="845.13" x2="1149.82" y2="845.13" gradientUnits="userSpaceOnUse">
      <stop offset="0" stop-color="#bf6a00"/>
      <stop offset="1" stop-color="#ffce00"/>
    </linearGradient>
    <linearGradient id="New_Gradient_Swatch_1-2" data-name="New Gradient Swatch 1" x1="501.38" y1="833.75" x2="1284.31" y2="833.75" xlink:href="#New_Gradient_Swatch_1"/>
    <linearGradient id="New_Gradient_Swatch_1-3" data-name="New Gradient Swatch 1" x1="594.77" y1="919.58" x2="578.43" y2="586.18" xlink:href="#New_Gradient_Swatch_1"/>
    <linearGradient id="New_Gradient_Swatch_1-4" data-name="New Gradient Swatch 1" x1="960.95" y1="901.63" x2="944.61" y2="568.23" xlink:href="#New_Gradient_Swatch_1"/>
    <linearGradient id="New_Gradient_Swatch_1-5" data-name="New Gradient Swatch 1" x1="860.95" y1="906.53" x2="844.61" y2="573.14" xlink:href="#New_Gradient_Swatch_1"/>
    <linearGradient id="New_Gradient_Swatch_1-6" data-name="New Gradient Swatch 1" x1="771.61" y1="910.91" x2="755.26" y2="577.52" xlink:href="#New_Gradient_Swatch_1"/>
    <linearGradient id="New_Gradient_Swatch_1-7" data-name="New Gradient Swatch 1" x1="684.89" y1="915.16" x2="668.55" y2="581.77" xlink:href="#New_Gradient_Swatch_1"/>
    <linearGradient id="New_Gradient_Swatch_1-8" data-name="New Gradient Swatch 1" x1="1161.53" y1="891.8" x2="1145.18" y2="558.4" xlink:href="#New_Gradient_Swatch_1"/>
    <linearGradient id="New_Gradient_Swatch_1-9" data-name="New Gradient Swatch 1" x1="1038.35" y1="897.83" x2="1022.01" y2="564.44" xlink:href="#New_Gradient_Swatch_1"/>
    <linearGradient id="New_Gradient_Swatch_1-10" data-name="New Gradient Swatch 1" x1="1243.77" y1="887.76" x2="1227.42" y2="554.37" xlink:href="#New_Gradient_Swatch_1"/>
    <linearGradient id="New_Gradient_Swatch_1-11" data-name="New Gradient Swatch 1" x1="1101.4" y1="894.74" x2="1085.05" y2="561.35" xlink:href="#New_Gradient_Swatch_1"/>
  </defs>
  <g id="Layer_3" data-name="Layer 3">
    <g id="ASsyHT">
      <g>
        <path d="M1230.49,1096.08c-211.7,220.29-577.18,177.32-729.33-87.44-186.73-324.94,87.53-714.79,453.71-670.7,365.52,44.02,534.81,488.44,275.63,758.14ZM1104.13,647.4h-23.48c-1.81,1.11-1.75,2.53-1.97,4.38-2.87,24.47.32,61.09,1.39,86.3.33,7.81-.35,15.73-.05,23.53h24.11v-114.21ZM597.18,651.21c-17.82-2.11-39.49,1.57-57.74,0l1.27,110.4h26.65v-39.34h17.77l20.94,39.34h27.28c-6.43-13.92-13.94-29.81-22.85-42.24-.55-.77-1.6-.97-2.51-.93l-.02-2.5c20.46-6.78,26.12-30.9,16.25-48.63-4.89-8.79-17.22-14.94-27.04-16.11ZM925.2,651.21h-27.92l36.3,110.48c6.12-1.24,26.4,2.28,29.57-2.09l36.91-108.39h-26.01l-24.76,79.94-24.1-79.94ZM714.56,727.34c8.66-65.32-86.1-62.88-78.54,1.77,4.35,37.17,52.14,45.3,75.98,21.71l-12.02-13.1c-13.29,11.59-37.95,11.31-38.71-10.37h53.3ZM800.85,761.61v-61.54c0-1.43-5.45-11.83-6.92-13.39-11.4-12.07-29.97-7.12-41.67,1.34-.86.62-1.83,5.82-3.77.97l-.95-7.32h-24.11l1.27,79.94h25.38v-55.83c5.31-2.12,9.3-6.99,15.75-6.34,4.65.47,9.63,6.46,9.63,10.78v51.39h25.38ZM848.85,679.43c-53.29,2.61-53.7,88.01,7.16,84.71,53.43-2.9,50.69-87.53-7.16-84.71ZM1067.33,761.61c-5.43-18.53,5.08-55.17-6.35-70.42-5.85-7.79-20.34-12.22-29.75-12.1-5.25.06-34.49,7.23-33.57,13.15l9.56,13.36c11.31-6.38,35.12-13.73,34.19,6.61-12.06,2.08-23.46.55-34.91,6.97-29.04,16.28-5.47,58.4,27.69,40.38,6.96-3.78,11.6-14.14,10.3,2.05h22.84ZM1191.68,727.34c9.32-65.32-85.14-63.51-77.27,3.04,4.41,37.31,52.29,43.07,75.95,20.44l-10.97-13.21c-5.85,1.15-8.99,6.1-15.3,7.19-13.48,2.33-24.19-2.8-24.44-17.46h52.03ZM1268.63,689.73c-5.65-6.26-21.2-10.67-29.36-10.59-52.7.52-56.29,85.53,1.2,85.05,7-.06,26.72-5.4,30.6-11.46,1.3-2.03-6.8-13.37-8.89-14.2-5.83-2.31-10.71,6.03-17.99,6.53-27.34,1.88-26.06-51.86,2.43-45.36,5.44,1.24,7.45,7.96,9.26,8.4,9.1.02,10.39-7.79,15.59-13.3.2-1.22-1.9-4.03-2.84-5.07ZM1284.31,804.76l-76.78-8.88c-210.15-18.14-423.37.35-626.23,56.43l-79.92,26.02c108.55-28.75,219.08-50.68,330.72-64.54,107.29-13.32,211.49-18.45,319.56-15.34,17.78.51,35.56.76,53.34,1.23,24.13,1.57,48.27,4.59,72.36,6.32,1.51.11,6.95,1.06,6.96-1.24ZM1149.8,806.03c-170.13-3.33-340.56,13.61-506.07,51.61l-68.75,18.16,98.18,8.85c138.61-47.95,286.23-70.09,432.86-76.1,2.44-.1,4.87-1.21,7.57-1.31,10.56-.39,21.23.49,31.79.05,1.54-.06,4.72.96,4.42-1.26Z"/>
        <path class="cls-9" d="M1149.8,806.03c.3,2.21-2.88,1.19-4.42,1.26-10.56.43-21.23-.44-31.79-.05-2.7.1-5.14,1.21-7.57,1.31-146.63,6.01-294.24,28.15-432.86,76.1l-98.18-8.85,68.75-18.16c165.51-38,335.94-54.94,506.07-51.61Z"/>
        <path class="cls-1" d="M1284.31,804.76c-.01,2.3-5.45,1.35-6.96,1.24-24.09-1.72-48.23-4.75-72.36-6.32-17.78-.47-35.56-.72-53.34-1.23-108.07-3.11-212.27,2.01-319.56,15.34-111.64,13.86-222.17,35.79-330.72,64.54l79.92-26.02c202.86-56.08,416.09-74.58,626.23-56.43l76.78,8.88Z"/>
        <path d="M567.36,671.51h20.94c.44,0,6.08,2.61,6.93,3.22,9.28,6.64,6.85,24.8-5.74,27.15-5.97,1.12-16.59,2.14-22.13-.55v-29.82Z"/>
        <path d="M841.85,742.17c-8.51-7.71-7.94-37.06,3.74-41.78,26.84-10.84,29.44,40.5,10.17,44.42-4.26.87-10.6.36-13.91-2.64Z"/>
        <path d="M661.26,713.39c2.66-20.2,29.68-22.46,30.45,0h-30.45Z"/>
        <path d="M1168.84,713.39h-29.19c.64-20.89,30.82-22.06,29.19,0Z"/>
        <path d="M1041.95,727.34c.62,9.31.99,13.75-8,18.02-17.3,8.21-23.76-15.14-3.95-17.9,3.9-.54,8.03.12,11.95-.12Z"/>
      </g>
    </g>
  </g>
  <g id="Layer_4" data-name="Layer 4">
    <g>
      <path class="cls-3" d="M597.18,651.21c9.81,1.16,22.14,7.32,27.04,16.11,9.87,17.73,4.21,41.84-16.25,48.63l.02,2.5c.91-.04,1.95.15,2.51.93,8.91,12.43,16.42,28.32,22.85,42.24h-27.28l-20.94-39.34h-17.77v39.34h-26.65l-1.27-110.4c18.25,1.57,39.91-2.11,57.74,0ZM567.36,671.51v29.82c5.53,2.7,16.15,1.67,22.13.55,12.59-2.36,15.02-20.51,5.74-27.15-.85-.61-6.49-3.22-6.93-3.22h-20.94Z"/>
      <path class="cls-7" d="M925.2,651.21l24.1,79.94,24.76-79.94h26.01l-36.91,108.39c-3.17,4.37-23.45.85-29.57,2.09l-36.3-110.48h27.92Z"/>
      <path class="cls-6" d="M848.85,679.43c57.85-2.83,60.59,81.8,7.16,84.71-60.86,3.31-60.45-82.1-7.16-84.71ZM841.85,742.17c3.31,3,9.65,3.5,13.91,2.64,19.27-3.92,16.67-55.26-10.17-44.42-11.69,4.72-12.25,34.07-3.74,41.78Z"/>
      <path class="cls-2" d="M800.85,761.61h-25.38v-51.39c0-4.32-4.98-10.31-9.63-10.78-6.45-.65-10.44,4.22-15.75,6.34v55.83h-25.38l-1.27-79.94h24.11l.95,7.32c1.94,4.85,2.91-.35,3.77-.97,11.7-8.45,30.27-13.41,41.67-1.34,1.47,1.55,6.92,11.96,6.92,13.39v61.54Z"/>
      <path class="cls-8" d="M714.56,727.34h-53.3c.76,21.68,25.42,21.96,38.71,10.37l12.02,13.1c-23.84,23.59-71.63,15.46-75.98-21.71-7.56-64.64,87.2-67.08,78.54-1.77ZM661.26,713.39h30.45c-.77-22.46-27.79-20.2-30.45,0Z"/>
      <path class="cls-5" d="M1191.68,727.34h-52.03c.25,14.66,10.96,19.79,24.44,17.46,6.31-1.09,9.44-6.04,15.3-7.19l10.97,13.21c-23.65,22.63-71.54,16.87-75.95-20.44-7.87-66.55,86.59-68.35,77.27-3.04ZM1168.84,713.39c1.64-22.06-28.54-20.89-29.19,0h29.19Z"/>
      <path class="cls-4" d="M1067.33,761.61h-22.84c1.3-16.19-3.34-5.83-10.3-2.05-33.16,18.03-56.73-24.09-27.69-40.38,11.45-6.42,22.85-4.89,34.91-6.97.92-20.33-22.89-12.99-34.19-6.61l-9.56-13.36c-.92-5.93,28.31-13.09,33.57-13.15,9.41-.11,23.9,4.31,29.75,12.1,11.44,15.24.92,51.89,6.35,70.42ZM1041.95,727.34c-3.92.24-8.05-.43-11.95.12-19.81,2.76-13.35,26.11,3.95,17.9,8.99-4.27,8.62-8.7,8-18.02Z"/>
      <path class="cls-10" d="M1268.63,689.73c.94,1.04,3.05,3.86,2.84,5.07-5.21,5.51-6.49,13.32-15.59,13.3-1.81-.44-3.82-7.16-9.26-8.4-28.49-6.5-29.77,47.24-2.43,45.36,7.28-.5,12.16-8.84,17.99-6.53,2.09.83,10.19,12.17,8.89,14.2-3.88,6.07-23.6,11.41-30.6,11.46-57.49.48-53.9-84.54-1.2-85.05,8.16-.08,23.71,4.33,29.36,10.59Z"/>
      <path class="cls-11" d="M1104.13,647.4v114.21h-24.11c-.29-7.8.38-15.72.05-23.53-1.06-25.21-4.26-61.83-1.39-86.3.22-1.85.16-3.26,1.97-4.38h23.48Z"/>
    </g>
  </g>
</svg>