<?xml version="1.0" encoding="UTF-8"?>
<svg id="Layer_5" data-name="Layer 5" xmlns="http://www.w3.org/2000/svg" viewBox="0 0 1743.61 1743.61">
  <defs>
    <style>
      .cls-1 {
        fill: #323232;
      }

      .cls-2 {
        fill: #f4f4f4;
      }

      .cls-3 {
        fill: #353534;
      }

      .cls-4 {
        fill: #ec8016;
      }

      .cls-5 {
        fill: #5c5c5c;
      }

      .cls-6 {
        fill: #525252;
      }

      .cls-7 {
        fill: #323231;
      }

      .cls-8 {
        fill: #fdfaf3;
      }

      .cls-9 {
        fill: #f7f7f7;
      }

      .cls-10 {
        fill: #ea7d16;
      }

      .cls-11 {
        fill: #585858;
      }

      .cls-12 {
        fill: #ec7f17;
      }

      .cls-13 {
        fill: #333;
      }

      .cls-14 {
        fill: #4c4c4c;
      }

      .cls-15 {
        fill: #fdfaf4;
      }

      .cls-16 {
        fill: #fdfdfd;
      }
    </style>
  </defs>
  <g id="GtbkDr">
    <g>
      <path class="cls-3" d="M971.11,506.56l-48,192h-172l49.5-192h170.5ZM855.11,648.56c8.08.43,17.37-5.48,18.76-13.74-.88-19.2,1.99-40.9.28-59.8-1.16-12.88-9.47-17.55-21.51-18.49-15.64-1.23-38.72-2.2-38.54,19.04h41v73ZM916.11,556.56h-38l3.14,18.86c17.8,1.06,31.76,2.41,34.86-18.86Z"/>
      <path class="cls-12" d="M569.11,698.56l47.68-190.76c.98-2.09,10.24-2.2,12.77-2.29,9.26-.33,18.26,1,27,1.1,41.5.46,83.05-.43,124.54-.04l-49.5,191.99h-162.5ZM644.61,611.56h55c.11,0,1.5,1.39,1.5,1.5v16.5c-1.83.46-3.53.9-5.45,1.05-15.81,1.24-39.12-2.65-53.6.4-8.4,1.77-11.16,10.12-12.94,17.56h75.5c2.16,0,9.42-5.01,10.94-7.06,6.57-8.82,7.12-36.56-1.93-43.96-1.05-.86-7.2-3.99-8.01-3.99h-56c-.11,0-1.5-1.39-1.5-1.5v-16c0-.11,1.39-1.5,1.5-1.5h56c6.84,0,13.35-12.04,14.5-17.99-2.9.27-5.61-.86-8.46-1.05-16.83-1.11-43.35-1.27-60.08,0s-21.59,7.9-22.5,24.5c-.69,12.55-.12,29.31,15.54,31.54Z"/>
      <path class="cls-4" d="M959.11,627.56c4.19.38,2.39-.07,3-2.46,1.25-4.91,4.37-8.45,5.55-13.49,1.07-4.6.11-10.93,1.36-14.6.58-1.69,2.08-1.54,2.09-2.04.09-6.41.44-7.69,3.68-12.71,2.63-4.08-1.45-6.98-.66-7.69,1.83.05,3.89.22,5-1.53-2.52-4.92-.97-4.09-.29-7.26,1.03-4.83,2.13-10.59,3.84-15.17,1.23-3.29,4.23-6.98,4.84-9.25.71-2.63-1.57-5.8,1.63-7.3,1.59-.74,3.7-.1,4.77-.71.68-.39.52-2.53,2.95-3.54s8.99-.73,10.32-1.68c1.05-.75,1.53-7.72,6.89-9.14,1.88-.5,3.69.82,5.54.66,6.27-.56,11.24-3.47,15.08-4.08,4.65-.74,13.17,3.35,18.01,3.92,6.5.76,13.42-1.02,18.97-.79,4.97.2,14.95,2.93,19.95,2.96,6.36.03,11.85-3.56,16.1-4.07s11.58,2.02,15.92,2c3.06-.02,5.39-2.22,8.87-1.98,3.94.27,9.92,5.07,12.1,5.02.47-.01.65-1.97,1.01-2.08,3.43-1.01,2.05,1.44,3.06,2.92,1.17,1.72,2.98,2.32,3.43,4.63,1.29,6.61-4.81,23.91-6.75,31.21-.94,3.52-1.36,10.23-2.5,13.5-.92,2.64-4.15,6.36-4.58,8.5-.48,2.42.92,4.45.43,6.31-.52,1.96-5.15,7.56-5.41,9.65-.17,1.34,1.73,2.22,1.65,3.63-.17,2.92-4.4,7-4.81,9.19-1.42,7.59-1.63,18.16-3.06,25.94-.38,2.07-2.66,4.39-2.19,7.32-.44.79-7.22,3.38-8.18,3.27-.81-.09-.86-1.97-1.6-2.52-1.17-.88-2.55-.29-2.99-.52-15.16-7.64-30.28-19.98-44-30h16.5c5.03,0,12.21-4.87,14.71-9.29,4.05-7.17,4.21-29.63.34-36.76-3.16-5.84-9.59-9.28-16.06-9.94-11.14-1.13-45.32-1.53-55.75.23-8.27,1.39-14.58,8.15-15.65,16.35-2.22,16.94,1.47,38.02-.08,55.41,1.75.11,3.35-.57,4.99-1,.55-.14,1.46.24,2.29-.03.78-.25.52-2.95,4.04-2.01,1.11.3.99,3.02,3.38,3.82,6.09,2.05,13.67-.59,16.58.16.94.24.95,2.02,1.74,2.47,1.23.7,2.84.47,3.9,1.15,1.5.95,2.4,4.66,5.54,4.44,1.28-.24,2.18-6.51,2.52-8,.85-.05,1.47.79,2,1-.02,3.2,4.38,9.28,7.02,10.48s5.7.02,8.43.56c1.52.3,3.27,1.4,5.55,1.96.31.08.69-.08,1,0,1.57,7.06,10.15,2.67,15.3,4.2,1.83.54,3,3.2,4.78,4.22,3.15,1.82,8.89,1.43,10.85,4.17s-.17,5.51.15,8.74c.43,4.34,3.25,11.6,3.01,15.18s-4.19,10.2-4.19,14.38l-166.89.1c1.51-3.83,1.42-8.32,2.42-12.1.55-2.06,2.83-1.69,3.34-4.57,1.92-10.91,3.15-20.02,6.13-30.1,1.96-6.61,3.14-13.88,3.1-19.21,0-.67,0-1.33,0-2Z"/>
      <path class="cls-13" d="M975.11,876.56h-23l-11.88-46.42-6.12-.58v47h-23v-105c9.04-.96,18.4-1.56,27.54-1.04,15.94.91,33.14,3.74,35.35,22.65,1.1,9.42.18,22.81-7.39,29.4-1.9,1.65-5.23,1.75-5.48,4.43l13.98,49.56ZM934.11,816.56c16.13,1.72,21.32-5.85,18.76-21.26-1.66-10.01-10.67-8.81-18.76-8.74v30Z"/>
      <path class="cls-13" d="M576.87,769.82c15.69-2.12,33.44.99,38.54,17.94,3.24,10.75,2.73,49.77,1.74,62.34-1.17,14.72-7.96,26.53-23.64,28.36-21.58,2.51-37.83-4.12-40.27-27.52-1.3-12.41-1.53-53.95,2.15-64.6,3.31-9.56,11.64-15.18,21.48-16.52ZM581.83,785.78c-4.08.96-5.31,5.62-5.72,9.28-1.45,13.03-1.29,43.81.01,56.99.72,7.27,2.44,11.28,10.49,10.55,4.78-.43,6.77-3.07,7.41-7.63,1.66-11.86,1.47-48.73.09-60.91-.82-7.21-5.08-9.98-12.29-8.28Z"/>
      <path class="cls-10" d="M959.11,627.56l31-122h169.5c.15,0,2.46,1.05,2.51,1.61l-49.01,191.39h-171l17-69c.05,5.34-1.14,12.6-3.1,19.21-2.98,10.08-4.21,19.19-6.13,30.1-.51,2.89-2.8,2.51-3.34,4.57-1,3.79-.91,8.28-2.42,12.1l166.89-.1c0-4.18,3.96-10.94,4.19-14.38s-2.59-10.84-3.01-15.18c-.32-3.23,1.8-6.01-.15-8.74s-7.7-2.35-10.85-4.17c-1.77-1.02-2.94-3.68-4.78-4.22-5.15-1.53-13.73,2.86-15.3-4.2,11.13,2.84,20.76,2.05,32.5,2l-1.5-3c.44.22,1.82-.36,2.99.52.74.55.79,2.43,1.6,2.52.96.11,7.74-2.47,8.18-3.27-.47-2.93,1.81-5.24,2.19-7.32,1.43-7.78,1.64-18.34,3.06-25.94.41-2.19,4.64-6.27,4.81-9.19.08-1.41-1.82-2.29-1.65-3.63.26-2.1,4.89-7.69,5.41-9.65.49-1.85-.91-3.89-.43-6.31.43-2.15,3.66-5.86,4.58-8.5,1.14-3.27,1.56-9.98,2.5-13.5,1.95-7.29,8.05-24.6,6.75-31.21-.45-2.31-2.26-2.91-3.43-4.63-1.01-1.48.37-3.93-3.06-2.92-.36.1-.54,2.07-1.01,2.08-2.18.06-8.16-4.75-12.1-5.02-3.47-.24-5.8,1.96-8.87,1.98-4.34.02-11.74-2.5-15.92-2s-9.74,4.1-16.1,4.07c-4.99-.02-14.98-2.76-19.95-2.96-5.56-.22-12.47,1.56-18.97.79-4.84-.57-13.36-4.66-18.01-3.92-3.83.61-8.81,3.52-15.08,4.08-1.85.16-3.66-1.16-5.54-.66-5.37,1.42-5.84,8.39-6.89,9.14-1.33.95-7.88.66-10.32,1.68s-2.28,3.16-2.95,3.54c-1.07.61-3.19-.03-4.77.71-3.2,1.5-.92,4.67-1.63,7.3-.61,2.27-3.61,5.96-4.84,9.25-1.71,4.58-2.81,10.35-3.84,15.17-.67,3.17-2.23,2.33.29,7.26-1.11,1.74-3.16,1.58-5,1.53-.78.7,3.29,3.6.66,7.69-3.23,5.03-3.59,6.31-3.68,12.71,0,.5-1.51.35-2.09,2.04-1.25,3.67-.28,10-1.36,14.6-1.18,5.05-4.3,8.59-5.55,13.49-.61,2.39,1.2,2.84-3,2.46ZM994.11,520.57c-2.36.13-2.01,1.44-4.77,1.28-2.05-.12-2.31.68-1.23,1.7,1.4,1.33,8.54,2.13,6-2.98Z"/>
      <path class="cls-13" d="M869.11,810.56h-22v-19.5c0-.26-2.24-4.31-2.67-4.58-5.72-3.66-12.59-.17-13.89,6.03-2.15,10.31-1.35,45.87-.49,57.6.2,2.71.54,6.84,1.81,9.19,3.38,6.25,15.23,3.46,15.23-3.23v-18.5h22v16.5c0,1.87-3.32,11.5-4.45,13.55-7.12,12.93-30.36,13.49-42.25,8.14-11.18-5.03-14.61-16.11-15.35-27.65-.87-13.42-1.63-52.18,2.87-63.22,8.78-21.5,50.43-21.19,57.5.85.29.92,1.68,6.89,1.68,7.32v17.5Z"/>
      <path class="cls-1" d="M543.12,799.55l-21,3.01c-.02-7.54,1.51-18.96-9.46-17-4.26.76-5.84,6.67-5.49,10.37,1.46,15.45,34.17,27.38,36.85,50.23,5.53,47.27-64.83,42.46-58.84-1.56l19.94-3.05c.17,6.75-.05,19.68,8.77,20.82,6.79.88,8.86-5.49,8.15-11.23-2.57-20.78-38.05-27.89-36.96-56.13.87-22.5,17.57-29.72,38.09-26.01,14.81,2.68,18.96,17.45,19.96,30.54Z"/>
      <path class="cls-1" d="M1076.11,802.57c-1.2-5.34.97-16.24-6.6-17-5.73-.57-8.55,4.24-8.43,9.44.26,11.82,19.63,23.28,27.06,32.02,14.38,16.93,13.51,48.02-12.61,51.44-24.34,3.19-38.17-9.3-36.36-33.86l19.94-3.05c-.28,6.54-.21,20.21,8.66,20.7,7.23.4,8.04-7.45,7.11-12.97-2.85-16.85-33.07-26.14-35.65-47.35-3.09-25.44,14.34-36.21,37.94-31.94,9.74,1.76,15.83,9.94,17.72,19.28.24,1.17,1.24,9.21,1.12,9.69-.29,1.2-1.4,1.35-2.42,1.55-5.42,1.06-11.91,1.18-17.47,2.04Z"/>
      <rect class="cls-14" x="482.11" y="935.56" width="779" height="5"/>
      <path class="cls-1" d="M985.11,770.56l47.99,1.01c-.3,2.44,1.05,14.99-1.49,14.99h-23.5v27h19v16h-19v32c8.39-.26,16.69.08,25,1v14h-48v-106Z"/>
      <path class="cls-7" d="M798.11,786.56h-25v27h19v16h-19v32c5.31,2.15,9.68.04,14.49-.07,3.82-.09,6.88,1.59,10.51.07v15h-48v-105c14.2.53,30.5-2.7,44.55-1.05,1.01.12,3.45.46,3.45,1.55v14.5Z"/>
      <path class="cls-1" d="M1258.11,771.56v15h-25v27h18.5c.11,0,1.5,1.39,1.5,1.5v14.5h-20v32c8.55,2.77,17.28-.78,26,0v15h-48v-105h47Z"/>
      <path class="cls-7" d="M741.11,771.56v15h-17.5c-.11,0-1.5,1.39-1.5,1.5v88.5h-22v-89l-19-1v-15h60Z"/>
      <path class="cls-3" d="M652.11,770.56v91h26v15l-46.74.81c-.8.38-2.26-.95-2.26-1.31v-104c0-.11,1.39-1.5,1.5-1.5h21.5Z"/>
      <rect class="cls-1" x="1107.11" y="771.56" width="22" height="105"/>
      <path class="cls-7" d="M1197.11,876.56l-.7-5.03c-2.77-.04-11.61-10.16-13.29-4.44-1.03,3.51,3.31,3.84,4.89,5.07,2.84,2.22,2.87,4.32,8.11,4.39-2.35,1.69-10.69,1.57-12.59.09-2.71-2.11-7.92-21.79-10.41-26.09.09.13,1.68-.12,2.47,1.04.94,1.4-.19,4.36,3.99,3.02.82-.26.5-2.45,1.53-3.54,2.05-2.16,9.14-4.35,10-9.04,1.03-5.61.5-26.83-7.53-26.49-1.79.08-2.38,1.96-3.45,3.01-1.68-10.25-2.28-34.07-1.05-44.55.12-1.01.46-3.45,1.55-3.45h17c.83,0,1.77,2.43,1.55,3.45l-.55,101.58c-.34.72-.91.76-1.5.97ZM1190.11,772.57h-9c-2.99,8.02,11.23,1.93,9,0Z"/>
      <path class="cls-7" d="M1141.11,859.56c-.27-29.65.2-59.36,0-89.01,2.51.44,16.27-.6,16.99.03.34.3-.24,2.29.01,2.98-1.97.72-1.85-1.69-2.5-1.81-2.39-.46-9.32,1.89-12.5.82-1,4.27,2.79,9.43,2.87,12.52s-3.97,2.84-2.79,10.9c.94,6.43,1.98,3.25.18,10.35-1.94,7.66,5.47,3.86,7.18.18.33-.72,3.41-8.99,3.51-9.49,1.3-6.9-2.51-15.13,9.04-11.46,4.9,11.26,9.84,22.52,14.72,33.81.8,1.86-.67,3.14,2.28,1.19.23.95,1.74,2.19.99,4-5.46-1.99-6.09-.96-8.83,3.67-2.86,4.82-2.01,5.29-2.22,9.75-.04.85-.95,1.48-.94,1.59l-7.99-15.99c-1.31,16.1,1.7,34.76.04,50.54-.54,5.15-2.02,2.47-3.05,2.45.95-3.29,1.99-26.08,1-27-.37-.34-3.78.79-5.54-.96-2.09-2.08-1.2-10.67-6.72-9.89-5.87.82-3.57,12.48-3.74,17.4-.06,1.93,1.02,4.01-2,3.45Z"/>
      <path class="cls-13" d="M1180.11,818.56c1.07-1.05,1.66-2.94,3.45-3.01,8.04-.34,8.56,20.88,7.53,26.49-.86,4.68-7.95,6.88-10,9.04-1.03,1.09-.71,3.28-1.53,3.54-4.18,1.33-3.04-1.62-3.99-3.02-.78-1.16-2.38-.91-2.47-1.04-1.51-2.06-3.82-8.36-4-11,0-.11.9-.73.94-1.59.21-4.46-.64-4.93,2.22-9.75,2.74-4.62,3.37-5.66,8.83-3.67.75-1.8-.76-3.05-.99-4-.14-.57.1-1.37,0-2Z"/>
      <path class="cls-6" d="M1128.11,1000.06c.8-2.58,12.44-1.51,15.05-1.05,8.34,1.46,13.45,8.26,9.14,16.25-1.45,2.68-6.04,5.27-6.18,5.87-.33,1.45,10.26,15.3,8.98,16.43-11.26,1.66-9.55-18.65-21-15.99v14.5c0,2.3-6,.83-6,.5v-36.5ZM1133.11,1003.56c.76,8.59-3.8,15.99,8.27,13.76,4.99-.92,7.7-4,6.72-9.22-1.23-6.56-10.15-4.18-14.99-4.54Z"/>
      <path class="cls-13" d="M1141.11,859.56c3.02.56,1.94-1.53,2-3.45.17-4.93-2.12-16.58,3.74-17.4,5.52-.77,4.64,7.81,6.72,9.89,1.76,1.75,5.17.62,5.54.96.99.92-.05,23.71-1,27-2.32-.04-4.68-.05-7,0,.08-1.51,4.18-6.5.5-6.01-3.41.45-5.12,2.48-4.5,6.01-.99.04-2.01-.09-3,0-.43-1.43-1.54-1.99-3-2-.37-4.75.04-10.13,0-15Z"/>
      <path class="cls-11" d="M1289.11,1013.06c.57-1.88,3.23-1.9,4.95-.71,2.36,1.62,5.47-1.38,10.57-.82,3.1.34,5.13,2.64,5.98,2.69,1.15.07,3.47-2.07,5.22-2.44,3.38-.71,12.28-.3,12.28,4.27v20c0,1.88-5,1.88-5,0v-18c0-4.54-12-1.2-12-.5v20c-9.86,1.58-2.14-15.86-5.9-20.59-2.73-3.43-11.1.01-11.1,2.09v18.5c-1.31.33-5-.19-5-1.5,0-4.72-.96-19.86,0-23Z"/>
      <path class="cls-11" d="M871.11,1000.06c.69-2.24,10.28-1.68,12.48-1.48,24.68,2.22,15,28.98-6.49,23.98-.58,3.1,1.02,11.92-.45,14.05-1.35,1.96-5.55.75-5.55-.55v-36ZM877.11,1018.56c20.14,3.07,20.98-18.75,0-15v15Z"/>
      <path class="cls-13" d="M1163.11,785.56c-11.55-3.67-7.74,4.56-9.04,11.46-.09.5-3.18,8.77-3.51,9.49-1.71,3.69-9.12,7.48-7.18-.18,1.8-7.1.76-3.92-.18-10.35-1.18-8.07,2.86-7.74,2.79-10.9s-3.87-8.25-2.87-12.52c3.18,1.07,10.11-1.28,12.5-.82.64.12.52,2.53,2.5,1.81,1.25,3.46,3.47,8.48,5,12Z"/>
      <path class="cls-11" d="M376.09,1004.56c-.82.63-17.91-5.93-17.89,3.5s20.8,4,19.98,19.02c-.5,9.28-9.71,11.1-17.46,10.37-3.87-.37-9.19-1.24-7.61-5.89,1.04-1.1,19.48,5.99,19.74-4.68.23-9.46-21.8-4.51-19.69-19.74,1.46-10.56,20.84-10.53,23.55-6.61.56.81-.45,3.91-.62,4.03Z"/>
      <path class="cls-6" d="M767.11,1011.56v37h-5.01s0-13,0-13c-9.51,4.78-19.05.82-19.08-10.5-.04-14.25,12.71-16.01,24.08-13.5ZM754.82,1014.78c-8.96,2.06-10.77,20.68,2.72,18.74,7.02-1.01,6.61-10.84,5.58-16.46-.65-3.51-5.53-2.92-8.29-2.28Z"/>
      <path class="cls-5" d="M676.11,998.56v15c3.69-4.71,18-3.72,18,2.5v20c0,1.88-5,1.88-5,0v-19c0-4.15-13-1.25-13-.5v20h-5v-38h5Z"/>
      <path class="cls-6" d="M614.61,998.56c1.09.31,1.86,2.29,1.48,3.48-.87,2.75-10.3,1.09-12.99,1.51-1.11,1.11,1.28,27.06-.13,31.37-.76,2.31-3.92,1.6-5.86,1.64v-33c-2.69-.43-12.12,1.23-12.98-1.52-.38-1.22.64-3.48,1.48-3.48,6.04,0,24.78-1.2,29,0Z"/>
      <path class="cls-11" d="M905.45,1034.22c-2.66-2.67-3.5-7.53-3.41-11.18.53-20.33,33.76-15.17,24.86,7.8-3.06,7.89-15.96,8.87-21.45,3.38ZM912.84,1014.76c-9.05,1.97-8.16,21.35,4.54,18.6,8.71-1.88,8.12-21.36-4.54-18.6Z"/>
      <path class="cls-6" d="M509.81,1034.26c-.69.64-5.43,2.88-6.42,3.08-21.67,4.43-22.81-32.72,1.75-26.3,8.99,2.35,10.56,17.83,4.67,23.22ZM496.82,1014.78c-5.8,1.72-6.59,15.36-.46,18.03,14.64,6.36,16.73-22.85.46-18.03Z"/>
      <path class="cls-6" d="M641.11,1024.56h-19c-.56,5.32,3.06,9.01,8.38,8.9,2.83-.06,12.49-4.64,8.15,2.13-2.99,4.66-18.02,1.96-21.03-5.04-8.96-20.83,23.72-29.88,23.5-6ZM636.11,1021.56c.96-9.78-14.96-9.77-14,0h14Z"/>
      <path class="cls-5" d="M1264.11,1024.56c-1.29,10.88,9.38,9.64,17,8,1.72,5.5-5.23,5.19-9.52,5.05-8.33-.27-13.32-5.12-13.5-13.6-.33-15.14,23.21-16.4,24.98-4.89,1.83,11.87-12.02,4.05-18.95,5.43ZM1278.11,1021.56c1.57-8.94-14.69-8.12-15,0h15Z"/>
      <path class="cls-6" d="M1183.11,1024.56h-19c-1.65,14.52,16.23,6.14,16.99,7,.29.32.06,3.22-.46,4.03-3.02,4.71-17.95,2.15-21.03-5.04-9-20.98,23.83-29.22,23.5-6ZM1178.11,1021.56c.37-9.65-14.84-9.4-14,0h14Z"/>
      <path class="cls-11" d="M391.85,1010.8c22.83-4.19,22.17,29.56,1.03,26.54-14.18-2.02-14.03-24.16-1.03-26.54ZM391.82,1014.77c-7.53,2.23-6.28,22.47,6.58,18.58,7.51-2.27,7.92-22.87-6.58-18.58Z"/>
      <path class="cls-11" d="M1050.81,1013.86c5.25,5.77,4.07,18.96-3.42,22.47-20.98,9.82-27.85-24.77-7.79-25.85,3.28-.18,8.96.9,11.22,3.38ZM1037.83,1014.77c-6.77,1.53-6.55,16.44-.78,18.34,15.41,5.08,16.79-21.97.78-18.34Z"/>
      <path class="cls-11" d="M1026.11,998.56v5.01s-13,0-13,0v32.5c0,2.1-5,.78-5,.5v-33h-13.01s0-5,0-5h31Z"/>
      <path class="cls-5" d="M1359.11,1024.56h-20c-.18,11.1,10.04,9.45,17.99,8.01,2.35,6.24-10.14,5.61-14.27,4.77-13.64-2.78-13.09-30.69,9.34-25.34,7.29,1.74,5.4,6.75,6.93,12.57ZM1354.11,1021.56c.53-9.65-14.84-8.44-15,0h15Z"/>
      <path class="cls-5" d="M1236.11,1024.56h-19c-2.52,13.09,16.2,7.18,16.99,8.01.14.14.11,3.74-.06,3.93-.25.28-6.39,1.12-7.42,1.13-11.79.18-16.28-6-14.45-17.5,2.22-13.93,27.17-12.11,23.93,4.44ZM1231.11,1021.56c.68-10.06-13.86-9.19-15,0h15Z"/>
      <path class="cls-5" d="M524.11,1036.56h-5v-26c2.43-1.03,4.91,1.95,6.33,1.82,1.09-.1,2.5-1.55,4.22-1.77,3.73-.48,12.45.63,12.45,5.45v20c0,1.88-5,1.88-5,0v-19c0-4.05-13-1.85-13,1v18.5Z"/>
      <path class="cls-5" d="M432.11,1010.56v20.5c0,4.68,13,.45,13-.5v-20c1.31-.33,5,.19,5,1.5v24.5c-4.28,1.69-5.15-2.06-5.48-2.01-1.07.19-3.88,2.44-6.28,2.79-3.53.51-11.24-1.11-11.24-5.28v-21.5h5Z"/>
      <path class="cls-11" d="M952.11,1010.56c1.28.06,2.94-.33,4.06.44,3.01,2.06-1.26,21.16-.07,25.57-3.56,1.47-4.2-2.06-4.47-2.01-3.63.64-5.47,4.21-11.8,2.8-1.87-.42-5.72-3.65-5.72-5.29v-21.5c9.98-1.81,1.99,17.48,5.97,21.52,3.37,3.41,12.03-.78,12.03-3.02v-18.5Z"/>
      <path class="cls-6" d="M792.11,1011.56h5v25c-6.77-2.76-12.23,3.07-18.38-.13-.7-.36-3.62-3.12-3.62-3.37v-22.5c9.95-1.54,2.08,16.75,5.9,21.59,2.63,3.33,11.1-.29,11.1-2.09v-18.5Z"/>
      <path class="cls-11" d="M701.11,1012.06c1.48-5.18,5.13,1.58,5.49,1.49,5.36-1.33,12.79-7.21,17.28,1.75,1.85,3.69.24,4.01.24,5.76v15.5h-5c.45-6.16,4.3-23.01-6.23-21.82-1.16.13-6.77,2.34-6.77,3.32v18.5h-5c1.16-6.38-1.57-19,0-24.5Z"/>
      <path class="cls-11" d="M1364.11,1015.06c-.05-.43-1.37-1.37-1-2.49,4.13-1.71,5.23,2.03,5.56,2.05,1.27.06,3.48-1.6,5.16-1.82,2.62-.34,12.27-.3,12.27,3.27v21.5c-1.31.33-5-.19-5-1.5v-18c0-2.15-9.86-2.32-11.51.49-2.88,4.88,4.05,20.63-5.49,19.01-.6-7.16.82-15.5,0-22.5Z"/>
      <path class="cls-11" d="M1107.06,1011.61c.44.46-.16,3.77.05,4.95-2.97-1.11-14.04-4.01-14.04,1.5,0,5.03,14.45,1.29,15.1,11.02.56,8.34-7.94,9.24-14.46,8.38-2.59-.34-8.97-3.42-3.96-4.83,3-.84,11.42,3.98,13.43-2.57,0-4.84-14.17-2.35-15.05-11.09-.54-5.39,3.86-7.79,8.59-8.33,1.58-.18,9.87.47,10.35.97Z"/>
      <path class="cls-11" d="M567.12,1011.57c1.13,8.18-12.81-.03-14.04,4.63-1.66,6.25,10.76,3.97,13.94,8.96,4.72,7.41-2.56,12.05-9.43,12.42-4.09.22-11.39.08-9.46-5.01.99-1.03,15.02,3.76,15.06-2.49.03-5.77-15.17-1.88-15.17-12.01,0-9.25,12.9-8.07,19.12-6.49Z"/>
      <path class="cls-11" d="M850.05,1011.63c.17.18.2,3.79.07,3.93-.66.69-15-3.61-13.95,2.4.82,4.71,15.51,1.45,15.05,12.13-.37,8.53-14.52,9.56-19.11,5.97-1.43-1.12-.22-4.32.02-4.5.63-.47,14,5.44,14.05-1.48.03-5.43-14.9-2.57-14.9-12.01,0-5.21,4.75-7.22,9.37-7.53,1.37-.09,9.09.75,9.41,1.1Z"/>
      <path class="cls-6" d="M1428.05,1013.63c.39.43-.1,2.91.06,3.93-2.76-.83-12.74-2.39-13.99.51-1.55,3.62,7.4,4.29,9.69,5.29,10.44,4.56,5.61,14.85-5.25,15.24-1.2.04-9.1-.72-9.43-1.06-.28-.28.15-2.99-.02-3.97,1.24-1.27,14.88,4.35,15.07-3.51.06-2.59-8.09-3.21-10.62-4.44-8.43-4.12-5.52-12.3,4.05-13.06,1.53-.12,10,.62,10.43,1.08Z"/>
      <path class="cls-5" d="M1064.11,1011.56v17.5c0,1.25,2.89,4.24,4.55,4.52s8.45-1.58,8.45-2.02v-20h5v25c-3.57,1.48-4.2-2.06-4.48-2.01-2.81.5-4.65,3.45-9.9,2.96-1.89-.18-7.62-2.81-7.62-4.45v-21.5c0-.2,3.28.13,4,0Z"/>
      <path class="cls-11" d="M822.11,1023.56c.09-.64-.13-1.43,0-2,2.27-9.59-13.24-10.31-14,0-.07.9-.12,2.15,0,3,2.02,14.78,17.23,6.14,17.99,7,1.22,5.02-3.52,5.8-7.53,6.01-21.57,1.11-19.81-29.36-.06-26.93,5.73.71,11.52,7.16,7.67,12.51-1.75,2.43-3.52.34-4.07.4Z"/>
      <path class="cls-5" d="M1189.95,1011.73c1.39.84,6.42,18.87,7.67,18.84,1.8-2.28,5.84-18.26,6.6-18.91.65-.55,3.66.12,4.9-.1.92.82-7.1,21.41-8.24,23.25-1.35,2.17-3.05,3.97-5.77,2.28-1.17-.73-10.99-24.59-9.98-25.52,1.4.19,3.75-.49,4.83.16Z"/>
      <path class="cls-5" d="M664.97,1011.71c.53.9,0,2.69.14,3.85-.91.96-15.08-6.02-15.08,8.51,0,14.23,14.19,7.57,15.08,8.51,1.66,5.09-4.36,5.3-8.47,5.03-15.9-1.08-15.66-23.69-3.59-26.6,2.2-.53,10.95-.93,11.92.72Z"/>
      <path class="cls-5" d="M1247.11,1032.06c1.01,3.26,7.72.18,7.99.5,2.12,6.33-8.17,6.43-11.05,3.55-4.01-4.01-.86-19.54-1.94-20.56-.31-.29-3.07.22-4.02,0-.95-5.43,1.42-3.24,2.94-4.51,1.62-1.36,1.74-6.1,6.06-5.48-1.08,8.84,1.38,4.96,8.01,6.5,2.7,5.8-8.01,2.84-8.01,3.49,0,3.53-.73,14.14,0,16.5Z"/>
      <path class="cls-6" d="M458.11,1014.56c-.76-.7-5.27,1.71-3.98-2.48,3.47-1.11,3.67-5.88,6.45-6.55,4.56-1.11,1.51,3.57,2.64,4.93.44.53,6.52,1.21,7.9,1.1v2.99c-.39.41-8.01-.4-8.01,0v17.5c0,1.94,6.39,1.57,8.01,1.5,1.63,4.32-6.43,4.24-9.5,3-1.32-.53-3.51-2.12-3.51-3.5,0-2.59.68-17.87,0-18.5Z"/>
      <path class="cls-11" d="M1399.11,1032.06c1.06,3.4,9.18-1.44,7,5.5-3.13-.34-9.9,1.32-11.51-1.99s.28-18.3-.49-19.01c-.71-.66-4.53,1.44-4.02-1.5.25-1.44,7.49-9.07,9.01-7.49-1.02,7.55,1.51,3.98,7.01,5.5,2.51,5.67-7.01,2.93-7.01,3.49,0,3.36-.7,13.25,0,15.5Z"/>
      <path class="cls-5" d="M419.11,998.56v33.5c0,1.4,3.86,1.35,4,1.51.58.64-.04,3.43-1.64,3.9-2.09.62-7.36-2-7.36-3.41v-35.5h5Z"/>
      <path class="cls-5" d="M964.11,1012.06c1.48-5.18,5.13,1.58,5.49,1.49,2.09-.51,5.18-4.14,8.51-2.99.79,7.29-.74,3.98-5.04,5.45-7.45,2.55-2.28,14.15-4.11,19.9-.79,2.49-4.85.94-4.85.66,0-5.21-1.04-20.83,0-24.5Z"/>
      <path class="cls-5" d="M737.11,1010.56v25.5c0,1.88-5,1.88-5,0v-25.5h5Z"/>
      <path class="cls-6" d="M480.11,1011.56v25c0,.2-4,.2-4,0v-25c0-.2,3.28.13,4,0Z"/>
      <path class="cls-13" d="M1196.11,876.56c-5.24-.07-5.27-2.17-8.11-4.39-1.58-1.24-5.92-1.56-4.89-5.07,1.69-5.72,10.52,4.4,13.29,4.44l.7,5.03c-.22.08-.67,0-1,0Z"/>
      <path class="cls-5" d="M1229.97,1000.69c2.39,4.13-9.7,8.77-10.85,3.35-.09-.42,5.11-6.38,5.52-6.48.3-.08,5.18,2.86,5.33,3.13Z"/>
      <path class="cls-3" d="M822.11,1021.56c-.13.57.09,1.36,0,2-4.57.58-9.2,1.64-14,1-.12-.85-.07-2.1,0-3h14Z"/>
      <path class="cls-5" d="M736.96,1004.41c-1.12.69-4.28-.11-5.85.15-2.12-4.83,4.17-8.49,6.58-5.05.75,1.08-.11,4.51-.73,4.9Z"/>
      <path class="cls-5" d="M481.11,998.56v6s-6,0-6,0c-.94-6.21.88-4.85,6-6Z"/>
      <path class="cls-7" d="M1147.11,876.56c-.62-3.54,1.09-5.56,4.5-6.01,3.68-.49-.42,4.51-.5,6.01-1.31.03-3.32-.03-4,0Z"/>
      <path class="cls-7" d="M1144.11,876.56c-.28.02-1.53,1.65-2.99.99-.07-.99.07-2.01,0-2.99,1.46.01,2.57.57,3,2Z"/>
      <path class="cls-9" d="M855.11,648.56v-73h-41c-.18-21.23,22.9-20.26,38.54-19.04,12.04.94,20.34,5.61,21.51,18.49,1.71,18.91-1.16,40.61-.28,59.8-1.39,8.26-10.68,14.17-18.76,13.74Z"/>
      <path class="cls-2" d="M916.11,556.56c-3.1,21.27-17.06,19.93-34.86,18.86l-3.14-18.86h38Z"/>
      <path class="cls-15" d="M644.61,611.56c-15.66-2.23-16.23-19-15.54-31.54.91-16.6,5.3-23.19,22.5-24.5s43.25-1.11,60.08,0c2.85.19,5.56,1.32,8.46,1.05-1.15,5.95-7.66,17.99-14.5,17.99h-56c-.11,0-1.5,1.39-1.5,1.5v16c0,.11,1.39,1.5,1.5,1.5h56c.82,0,6.96,3.13,8.01,3.99,9.05,7.39,8.51,35.13,1.93,43.96-1.52,2.04-8.78,7.06-10.94,7.06h-75.5c1.78-7.44,4.54-15.79,12.94-17.56,14.48-3.05,37.8.85,53.6-.4,1.93-.15,3.62-.59,5.45-1.05v-16.5c0-.11-1.39-1.5-1.5-1.5h-55Z"/>
      <path class="cls-8" d="M1017.11,628.56c-1.64.42-3.25,1.11-4.99,1,1.55-17.39-2.14-38.47.08-55.41,1.07-8.2,7.39-14.96,15.65-16.35,10.43-1.76,44.61-1.35,55.75-.23,6.47.66,12.9,4.1,16.06,9.94,3.87,7.14,3.71,29.59-.34,36.76-2.5,4.42-9.68,9.29-14.71,9.29h-16.5c13.72,10.02,28.84,22.36,44,30l1.5,3c-11.73.04-21.36.83-32.5-2-.31-.08-.69.08-1,0l-12-9c-.82-1.8-2.94-1.43-4-2-.71-.38-1.21-.68-2-1-1.07-1.85-3.22-2.94-5-4-2.11-1.25-4.11-1.94-6-3,.57-3.46-8.77-5.77-10-7-.29-.29-2.85-6.84-2.96-7.58-.68-4.74,1.63-9.68,5.63-12.25,1.55-.99,7.37-3.17,8.83-3.17h30.5v-20l-51,1c-.51.11-.72.65-1,1-.8,1-.88.91-1.06,2.39-1.24,10.65,1.03,23.68.06,34.61-2.32,8.68-6.8,9-13,14Z"/>
      <path class="cls-10" d="M1032.11,576.56c5.11-1.08,21.34-.27,27.54-.04,2.13.08,4,.91,5.97,1.03,3.28.21,14.42-1.2,15.35,1.65.59,1.8.35,13.38-1,14.22-13.75,1.38-43.8-5.33-43.74,15.75,0,3.32,1.36,6.45,3.26,9.05.32.44,1.5.21,1.63.34,4.29,4.43,4.57,3.95,10,7,1.89,1.06,3.89,1.75,6,3-.09.64.13,1.43,0,2-.35,1.49-1.24,7.76-2.52,8-3.13.22-4.04-3.49-5.54-4.44-1.07-.67-2.67-.44-3.9-1.15-.78-.45-.79-2.23-1.74-2.47-2.92-.75-10.49,1.89-16.58-.16-2.39-.8-2.27-3.52-3.38-3.82-3.52-.95-3.27,1.75-4.04,2.01-.83.27-1.74-.12-2.29.03,6.2-5,10.68-5.32,13-14,.12-.45.88-.96,1.05-2.41,1.25-10.65-1.03-23.67-.05-34.59.28-.35.49-.89,1-1Z"/>
      <path class="cls-10" d="M1062.11,632.56c.79.32,1.29.62,2,1,.09,2.89,1.78,3.76,4,2l12,9c-2.28-.56-4.02-1.65-5.55-1.96-2.74-.54-5.71.67-8.43-.56s-7.04-7.28-7.02-10.48c.91.36,1.96.58,3,1Z"/>
      <path class="cls-12" d="M1062.11,632.56c-1.04-.42-2.09-.64-3-1-.53-.21-1.15-1.05-2-1,.13-.57-.09-1.36,0-2,1.78,1.06,3.93,2.15,5,4Z"/>
      <path class="cls-9" d="M934.11,816.56v-30c8.09-.07,17.1-1.27,18.76,8.74,2.56,15.41-2.63,22.98-18.76,21.26Z"/>
      <path class="cls-16" d="M581.83,785.78c7.21-1.7,11.47,1.08,12.29,8.28,1.38,12.17,1.56,49.05-.09,60.91-.64,4.57-2.62,7.2-7.41,7.63-8.05.73-9.77-3.29-10.49-10.55-1.31-13.18-1.46-43.96-.01-56.99.41-3.66,1.64-8.32,5.72-9.28Z"/>
      <path class="cls-4" d="M994.11,520.57c2.54,5.11-4.59,4.31-6,2.98-1.09-1.03-.82-1.82,1.23-1.7,2.76.16,2.41-1.15,4.77-1.28Z"/>
      <path class="cls-13" d="M1190.11,772.57c2.23,1.93-11.99,8.02-9,0h9Z"/>
      <path class="cls-2" d="M1133.11,1003.56c4.84.36,13.76-2.02,14.99,4.54.98,5.22-1.73,8.3-6.72,9.22-12.08,2.23-7.51-5.17-8.27-13.76Z"/>
      <path class="cls-9" d="M877.11,1018.56v-15c20.98-3.75,20.14,18.07,0,15Z"/>
      <path class="cls-2" d="M754.82,1014.78c2.77-.64,7.65-1.23,8.29,2.28,1.04,5.63,1.44,15.45-5.58,16.46-13.48,1.94-11.68-16.69-2.72-18.74Z"/>
      <path class="cls-9" d="M912.84,1014.76c12.66-2.76,13.25,16.72,4.54,18.6-12.71,2.75-13.6-16.63-4.54-18.6Z"/>
      <path class="cls-9" d="M496.82,1014.78c16.28-4.83,14.18,24.38-.46,18.03-6.14-2.67-5.35-16.31.46-18.03Z"/>
      <path class="cls-2" d="M636.11,1021.56h-14c-.96-9.77,14.96-9.78,14,0Z"/>
      <path class="cls-2" d="M1278.11,1021.56h-15c.31-8.12,16.57-8.94,15,0Z"/>
      <path class="cls-2" d="M1178.11,1021.56h-14c-.84-9.4,14.37-9.65,14,0Z"/>
      <path class="cls-9" d="M391.82,1014.77c14.5-4.29,14.09,16.31,6.58,18.58-12.86,3.89-14.11-16.36-6.58-18.58Z"/>
      <path class="cls-9" d="M1037.83,1014.77c16.01-3.63,14.63,23.43-.78,18.34-5.77-1.9-5.99-16.81.78-18.34Z"/>
      <path class="cls-2" d="M1354.11,1021.56h-15c.16-8.44,15.53-9.65,15,0Z"/>
      <path class="cls-2" d="M1231.11,1021.56h-15c1.14-9.19,15.68-10.06,15,0Z"/>
      <path class="cls-2" d="M822.11,1021.56h-14c.76-10.31,16.27-9.59,14,0Z"/>
      <path class="cls-12" d="M1032.11,576.56l51-1v20h-30.5c-1.46,0-7.29,2.17-8.83,3.17-4,2.57-6.31,7.52-5.63,12.25.11.74,2.67,7.29,2.96,7.58,1.23,1.23,10.57,3.54,10,7-5.43-3.05-5.71-2.57-10-7-.12-.13-1.31.1-1.63-.34-1.89-2.6-3.25-5.73-3.26-9.05-.06-21.09,30-14.37,43.74-15.75,1.35-.85,1.59-12.42,1-14.22-.93-2.85-12.07-1.44-15.35-1.65-1.97-.13-3.84-.95-5.97-1.03-6.2-.23-22.43-1.04-27.54.04Z"/>
      <path class="cls-12" d="M1030.11,614.56c.98-10.93-1.3-23.95-.06-34.61.17-1.48.26-1.4,1.06-2.39-.98,10.92,1.3,23.95.05,34.59-.17,1.45-.93,1.96-1.05,2.41Z"/>
      <path class="cls-12" d="M1068.11,635.56c-2.22,1.76-3.91.89-4-2,1.06.57,3.18.2,4,2Z"/>
    </g>
  </g>
</svg>